<?xml version="1.0" encoding="UTF-8" standalone="no"?>
<svg width="100px" height="100px" viewBox="0 0 100 100" version="1.1" xmlns="http://www.w3.org/2000/svg" xmlns:xlink="http://www.w3.org/1999/xlink">
    <!-- Generator: Sketch 39.1 (31720) - http://www.bohemiancoding.com/sketch -->
    <title>Central fire</title>
    <desc>Created with Sketch.</desc>
    <defs></defs>
    <g id="Symbols" stroke="none" stroke-width="1" fill="none" fill-rule="evenodd">
        <g id="Central-fire">
            <g>
                <rect id="Rectangle-5" x="0" y="0" width="100" height="100"></rect>
                <g id="Central-burglar-alarm" transform="translate(18.000000, 27.000000)" stroke-linecap="round" stroke="#FC664D" stroke-linejoin="round">
                    <g id="Page-1">
                        <path d="M49.9344636,31.2846 L13.8767364,31.2846 C11.5756909,31.2846 9.7106,33.1496909 9.7106,35.4496909 L9.7106,44.3036455 L54.0995545,44.3036455 L54.0995545,35.4496909 C54.0995545,33.1496909 52.2344636,31.2846 49.9344636,31.2846 L49.9344636,31.2846 Z" id="Stroke-1"></path>
                        <path d="M31.9053909,5.47452273 L31.9053909,5.47452273 C24.1669364,5.47452273 17.8942091,11.74725 17.8942091,19.4857045 L17.8942091,30.9658409 L45.9165727,30.9658409 L45.9165727,19.4857045 C45.9165727,11.74725 39.6428,5.47452273 31.9053909,5.47452273 L31.9053909,5.47452273 Z" id="Stroke-3"></path>
                        <g id="Group-7" transform="translate(1.045455, 43.780814)">
                            <path d="M0.415463636,0.522727273 L61.3048273,0.522727273" id="Stroke-5"></path>
                        </g>
                        <path d="M11.7001,19.0526773 L0.523145455,19.0526773" id="Stroke-8"></path>
                        <path d="M13.2156955,12.1062591 L1.09155909,6.99085" id="Stroke-10"></path>
                        <path d="M17.1940682,5.74790909 L13.2516591,0.522727273" id="Stroke-12"></path>
                        <path d="M52.1897182,19.0526773 L63.3666727,19.0526773" id="Stroke-14"></path>
                        <path d="M50.6741227,12.1062591 L62.7982591,6.99085" id="Stroke-16"></path>
                        <path d="M46.69575,5.74790909 L50.6381591,0.522727273" id="Stroke-18"></path>
                        <path d="M28.3579545,9.54865909 C28.3579545,9.54865909 22.8693182,11.7639773 22.0852273,17.1219318" id="Stroke-20"></path>
                    </g>
                </g>
            </g>
        </g>
    </g>
</svg>