<?xml version="1.0" encoding="UTF-8" standalone="no"?>
<svg width="53px" height="51px" viewBox="0 0 53 51" version="1.1" xmlns="http://www.w3.org/2000/svg" xmlns:xlink="http://www.w3.org/1999/xlink">
    <!-- Generator: Sketch 3.8.3 (29802) - http://www.bohemiancoding.com/sketch -->
    <title>Group 2</title>
    <desc>Created with Sketch.</desc>
    <defs></defs>
    <g id="Symbols" stroke="none" stroke-width="1" fill="none" fill-rule="evenodd">
        <g id="Butler" transform="translate(-28.000000, -25.000000)">
            <g id="Group-2">
                <rect id="Rectangle-32" x="0" y="0" width="100" height="100"></rect>
                <g id="butler" transform="translate(28.000000, 25.000000)">
                    <path d="M32.3722,13 C32.3722,19.904 26.7762,25.5 19.8722,25.5 C12.9682,25.5 7.3722,19.904 7.3722,13 C7.3722,6.096 12.9682,0.5 19.8722,0.5 C26.7762,0.5 32.3722,6.096 32.3722,13 L32.3722,13 Z" id="Stroke-1" stroke="#247DFF" stroke-linecap="round" stroke-linejoin="round"></path>
                    <path d="M9.657,27.5156 L19.872,45.9996 L29.873,27.5646 C30.908,25.7346 33.657,26.1536 34.1,28.2096 L39.122,50.4996 L0.5,50.4996 L5.436,28.1836 C5.87,26.1296 8.61,25.6966 9.657,27.5156 L9.657,27.5156 Z" id="Stroke-3" stroke="#247DFF" stroke-linecap="round" stroke-linejoin="round"></path>
                    <polygon id="Stroke-5" stroke="#247DFF" stroke-linecap="round" stroke-linejoin="round" points="15.1183 27.2822 15.1183 32.7822 19.2753 29.6252"></polygon>
                    <polygon id="Stroke-7" stroke="#247DFF" stroke-linecap="round" stroke-linejoin="round" points="24.6261 27.2822 24.6261 32.7822 20.4691 29.6252"></polygon>
                    <path d="M15.9185,10.7187 C15.9185,11.2707 15.4705,11.7187 14.9185,11.7187 C14.3665,11.7187 13.9185,11.2707 13.9185,10.7187 C13.9185,10.1667 14.3665,9.7187 14.9185,9.7187 C15.4705,9.7187 15.9185,10.1667 15.9185,10.7187" id="Fill-9" fill="#247DFF"></path>
                    <path d="M25.8258,10.7187 C25.8258,11.2707 25.3778,11.7187 24.8258,11.7187 C24.2738,11.7187 23.8258,11.2707 23.8258,10.7187 C23.8258,10.1667 24.2738,9.7187 24.8258,9.7187 C25.3778,9.7187 25.8258,10.1667 25.8258,10.7187" id="Fill-11" fill="#247DFF"></path>
                    <polyline id="Stroke-13" stroke="#247DFF" stroke-linecap="round" stroke-linejoin="round" points="20.0106 10.7187 21.6996 17.7497 17.3966 17.7497"></polyline>
                    <path d="M52.0693,41.8592 C52.0693,44.2442 47.2133,46.1772 41.2223,46.1772 C35.2313,46.1772 30.3753,44.2442 30.3753,41.8592 C30.3753,39.4742 35.2313,37.5412 41.2223,37.5412 C47.2133,37.5412 52.0693,39.4742 52.0693,41.8592" id="Fill-15" fill="#FFFFFF"></path>
                    <path d="M52.0693,41.8592 C52.0693,44.2442 47.2133,46.1772 41.2223,46.1772 C35.2313,46.1772 30.3753,44.2442 30.3753,41.8592 C30.3753,39.4742 35.2313,37.5412 41.2223,37.5412 C47.2133,37.5412 52.0693,39.4742 52.0693,41.8592 L52.0693,41.8592 Z" id="Stroke-17" stroke="#247DFF" stroke-linecap="round" stroke-linejoin="round"></path>
                    <path d="M44.4763,41.4324 C44.4763,42.1474 43.0193,42.7274 41.2223,42.7274 C39.4253,42.7274 37.9683,42.1474 37.9683,41.4324 C37.9683,40.7174 39.4253,40.1374 41.2223,40.1374 C43.0193,40.1374 44.4763,40.7174 44.4763,41.4324" id="Fill-19" fill="#FFFFFF"></path>
                    <path d="M44.4763,41.4324 C44.4763,42.1474 43.0193,42.7274 41.2223,42.7274 C39.4253,42.7274 37.9683,42.1474 37.9683,41.4324 C37.9683,40.7174 39.4253,40.1374 41.2223,40.1374 C43.0193,40.1374 44.4763,40.7174 44.4763,41.4324 L44.4763,41.4324 Z" id="Stroke-21" stroke="#247DFF" stroke-linecap="round" stroke-linejoin="round"></path>
                    <path d="M41.2222,33.0625 L41.2222,41.0315" id="Stroke-23" stroke="#247DFF" stroke-linecap="round" stroke-linejoin="round"></path>
                    <path d="M37.7188,25.9375 C37.7188,25.9375 37.6738,33.0625 41.3538,33.0625 C45.0348,33.0625 45.0348,25.9375 45.0348,25.9375 L37.7188,25.9375 L37.7188,25.9375 Z" id="Stroke-25" stroke="#247DFF" stroke-linecap="round" stroke-linejoin="round"></path>
                    <path d="M38.4111,29.9792 C38.5941,29.6352 38.7881,29.2782 39.1091,29.0572 C39.4301,28.8352 39.9161,28.8022 40.1791,29.0902 C40.2951,29.2172 40.3531,29.3882 40.4511,29.5302 C40.7111,29.9032 41.2801,30.0152 41.6621,29.7682 C42.0171,29.5382 42.2821,29.0362 42.6961,29.1202 C42.9531,29.1722 43.0991,29.4342 43.2891,29.6132 C43.5701,29.8782 44.0001,29.9722 44.3651,29.8492" id="Stroke-27" stroke="#247DFF" stroke-linecap="round" stroke-linejoin="round"></path>
                </g>
            </g>
        </g>
    </g>
</svg>