<?xml version="1.0" encoding="UTF-8" standalone="no"?>
<svg width="44px" height="52px" viewBox="0 0 44 52" version="1.1" xmlns="http://www.w3.org/2000/svg" xmlns:xlink="http://www.w3.org/1999/xlink">
    <!-- Generator: Sketch 39.1 (31720) - http://www.bohemiancoding.com/sketch -->
    <title>Calender</title>
    <desc>Created with Sketch.</desc>
    <defs></defs>
    <g id="Page-1" stroke="none" stroke-width="1" fill="none" fill-rule="evenodd" stroke-linecap="round" stroke-linejoin="round">
        <g id="Checkout---Default---Desktop" transform="translate(-192.000000, -798.000000)" stroke="#328DF9">
            <g id="Coverage-effective-ate" transform="translate(164.000000, 774.000000)">
                <g id="Calender" transform="translate(28.000000, 25.000000)">
                    <g>
                        <path d="M43.2184375,16.5669792 L0.531979167,16.5669792 L0.531979167,44.7919792 C0.531979167,47.6680208 2.86322917,50.0003125 5.7403125,50.0003125 L38.0101042,50.0003125 C40.8861458,50.0003125 43.2184375,47.6680208 43.2184375,44.7919792 L43.2184375,16.5669792 L43.2184375,16.5669792 Z" id="Stroke-3"></path>
                        <path d="M0.5315625,12.5291667 L43.2180208,12.5291667 L43.2180208,8.4375 C43.2180208,5.56145833 40.8867708,3.22916667 38.0096875,3.22916667 L5.73989583,3.22916667 C2.86385417,3.22916667 0.5315625,5.56145833 0.5315625,8.4375 L0.5315625,12.5291667 L0.5315625,12.5291667 Z" id="Stroke-5"></path>
                        <path d="M9.356875,0 L9.356875,8.30729167" id="Stroke-7"></path>
                        <path d="M34.9664583,0 L34.9664583,8.30729167" id="Stroke-9"></path>
                        <path d="M17.1805208,41.7257292 L26.5690625,41.7257292" id="Stroke-11"></path>
                        <polyline id="Stroke-13" points="17.1805208 28.7886458 21.1284375 24.8407292 21.8753125 24.8407292 21.8753125 40.8105208"></polyline>
                        <path d="M20.8002083,50 C20.8002083,50 0.531458333,48.4770833 0.531458333,37.2666667" id="Stroke-15"></path>
                    </g>
                </g>
            </g>
        </g>
    </g>
</svg>