<?xml version="1.0" encoding="UTF-8" standalone="no"?>
<svg width="100px" height="100px" viewBox="0 0 100 100" version="1.1" xmlns="http://www.w3.org/2000/svg" xmlns:xlink="http://www.w3.org/1999/xlink">
    <!-- Generator: Sketch 3.8.3 (29802) - http://www.bohemiancoding.com/sketch -->
    <title>Construction</title>
    <desc>Created with Sketch.</desc>
    <defs></defs>
    <g id="Symbols" stroke="none" stroke-width="1" fill="none" fill-rule="evenodd">
        <g id="Construction">
            <g>
                <rect id="Rectangle-14" x="0" y="0" width="100" height="100"></rect>
                <g id="Page-1" transform="translate(25.000000, 26.000000)" stroke-linecap="round" stroke="#7D5CF6" stroke-linejoin="round">
                    <g id="Group-5">
                        <polygon id="Stroke-1" points="0.5 48.5 26.969 48.5 26.969 44.376 0.5 44.376"></polygon>
                        <polygon id="Stroke-3" points="0.5 9.905 50.65 9.905 50.65 5.781 0.5 5.781"></polygon>
                        <polygon id="Stroke-4" points="8.792 44.376 18.445 44.376 18.445 0.5 8.792 0.5"></polygon>
                    </g>
                    <polygon id="Stroke-6" points="42.204 17.283 47.031 17.283 47.031 9.905 42.204 9.905"></polygon>
                    <g id="Group-13" transform="translate(8.000000, 9.000000)">
                        <path d="M36.6176,8.2829 L36.6176,17.6949 L36.6176,25.9369 C36.6176,25.9369 34.3376,25.9839 34.3376,28.2169 C34.3376,30.7449 36.6176,30.4979 36.6176,30.4979 C36.6176,30.4979 38.8976,30.4389 38.8976,28.2169" id="Stroke-7"></path>
                        <path d="M0.792,34.4863 L10.445,0.9053" id="Stroke-9"></path>
                        <path d="M0.792,0.9051 L10.445,34.0261" id="Stroke-11"></path>
                    </g>
                </g>
            </g>
        </g>
    </g>
</svg>