<?xml version="1.0" encoding="UTF-8" standalone="no"?>
<svg width="50px" height="33px" viewBox="0 0 50 33" version="1.1" xmlns="http://www.w3.org/2000/svg" xmlns:xlink="http://www.w3.org/1999/xlink">
    <!-- Generator: Sketch 39.1 (31720) - http://www.bohemiancoding.com/sketch -->
    <title>Credit card</title>
    <desc>Created with Sketch.</desc>
    <defs></defs>
    <g id="Page-1" stroke="none" stroke-width="1" fill="none" fill-rule="evenodd">
        <g id="Checkout---Default---Desktop" transform="translate(-639.000000, -1474.000000)">
            <g id="Payment-method" transform="translate(160.000000, 1050.000000)">
                <g id="Group-9" transform="translate(152.000000, 414.000000)">
                    <g id="Credit-card" transform="translate(327.000000, 10.000000)">
                        <path d="M49.795082,28.8598361 C49.795082,31.1139344 47.9508197,32.9581967 45.6967213,32.9581967 L4.71311475,32.9581967 C2.45901639,32.9581967 0.614754098,31.1139344 0.614754098,28.8598361 L0.614754098,4.26967213 C0.614754098,2.01557377 2.45901639,0.171311475 4.71311475,0.171311475 L45.6967213,0.171311475 C47.9508197,0.171311475 49.795082,2.01557377 49.795082,4.26967213 L49.795082,28.8598361 L49.795082,28.8598361 Z" id="Shape" fill="#CDCDCD"></path>
                        <rect id="Rectangle-path" fill="#424143" x="1.2295082" y="5.32786885" width="48.3606557" height="6.55737705"></rect>
                        <rect id="Rectangle-path" fill="#FFFFFF" x="6.96721311" y="15.1639344" width="29.5081967" height="6.55737705"></rect>
                        <rect id="Rectangle-path" fill="#424143" x="9.42622951" y="17.6229508" width="23.7704918" height="1.63934426"></rect>
                        <path d="M45.6967213,0.990983607 C47.504918,0.990983607 48.9754098,2.46147541 48.9754098,4.26967213 L48.9754098,28.8598361 C48.9754098,30.6680328 47.504918,32.1385246 45.6967213,32.1385246 L4.71311475,32.1385246 C2.90491803,32.1385246 1.43442623,30.6680328 1.43442623,28.8598361 L1.43442623,4.26967213 C1.43442623,2.46147541 2.90491803,0.990983607 4.71311475,0.990983607 L45.6967213,0.990983607 L45.6967213,0.990983607 Z M45.6967213,0.171311475 L4.71311475,0.171311475 C2.45901639,0.171311475 0.614754098,2.01557377 0.614754098,4.26967213 L0.614754098,28.8598361 C0.614754098,31.1139344 2.45901639,32.9581967 4.71311475,32.9581967 L45.6967213,32.9581967 C47.9508197,32.9581967 49.795082,31.1139344 49.795082,28.8598361 L49.795082,4.26967213 C49.795082,2.01557377 47.9508197,0.171311475 45.6967213,0.171311475 L45.6967213,0.171311475 L45.6967213,0.171311475 Z" id="Shape" fill="#DFDEDD"></path>
                        <rect id="Rectangle-path" fill="#FFFFFF" x="38.9344262" y="15.1639344" width="6.55737705" height="6.55737705"></rect>
                        <rect id="Rectangle-path" fill="#424143" x="39.7540984" y="17.6229508" width="4.91803279" height="1.63934426"></rect>
                        <ellipse id="Oval" stroke="#E9564B" stroke-width="2" cx="41.8032787" cy="18.357377" rx="6.35245902" ry="6.35245902"></ellipse>
                    </g>
                </g>
            </g>
        </g>
    </g>
</svg>