<?xml version="1.0" encoding="UTF-8" standalone="no"?>
<svg width="34px" height="50px" viewBox="0 0 34 50" version="1.1" xmlns="http://www.w3.org/2000/svg" xmlns:xlink="http://www.w3.org/1999/xlink">
    <!-- Generator: Sketch 39.1 (31720) - http://www.bohemiancoding.com/sketch -->
    <title>Fire Extinguisher</title>
    <desc>Created with Sketch.</desc>
    <defs></defs>
    <g id="Page-1" stroke="none" stroke-width="1" fill="none" fill-rule="evenodd">
        <g id="Discounts-part-1---Default---Desktop" transform="translate(-788.000000, -329.000000)">
            <g id="Fire-Extinguisher" transform="translate(688.000000, 270.000000)">
                <g transform="translate(67.000000, 34.000000)">
                    <g>
                        <rect id="Rectangle-3" x="0" y="0" width="100" height="100"></rect>
                        <g id="Fire-extinguisher" transform="translate(33.000000, 26.000000)" stroke-linecap="round" stroke="#FC664D" stroke-linejoin="round">
                            <g>
                                <path d="M14.5184,12.4108 L8.8794,12.4108 C6.1174,12.4108 3.8774,14.6508 3.8774,17.4128 L3.8774,47.2538 C3.8774,47.9418 4.4354,48.4998 5.1234,48.4998 L18.2744,48.4998 C18.9634,48.4998 19.5204,47.9418 19.5204,47.2538 L19.5204,17.4128 C19.5204,14.6508 17.2814,12.4108 14.5184,12.4108 L14.5184,12.4108 Z" id="Stroke-3"></path>
                                <path d="M6.7476,6.2414 C3.7146,7.5484 1.7626,9.8594 0.8316,12.0684 C0.5146,12.8264 0.8736,13.7034 1.6316,14.0204 C1.8226,14.0974 2.0136,14.1394 2.2106,14.1394 C2.7896,14.1394 3.3446,13.7934 3.5836,13.2264 C4.6406,10.7184 6.8786,9.0054 9.7866,8.4024 C10.5566,8.2354 11.3806,8.1514 12.2396,8.1514 L19.5236,8.1514 L19.5236,5.1664 L12.3416,5.1664 L12.2396,5.1664 C10.1206,5.1664 8.2936,5.5724 6.7476,6.2414 L6.7476,6.2414 Z" id="Stroke-5"></path>
                                <path d="M12.5921,3.8952 C12.5921,4.3432 12.5021,4.7732 12.3411,5.1672 L12.2401,5.1672 C10.1201,5.1672 8.2941,5.5732 6.7471,6.2412 C6.1561,5.6322 5.7981,4.8082 5.7981,3.8952 C5.7981,2.0262 7.3271,0.4982 9.1951,0.4982 C11.0701,0.4982 12.5921,2.0262 12.5921,3.8952 L12.5921,3.8952 Z" id="Stroke-7"></path>
                                <polygon id="Stroke-9" points="19.5231 5.1668 19.5231 8.1518 19.5231 9.1968 33.2841 11.5608 33.2841 1.7578 19.5231 4.1578"></polygon>
                                <path d="M9.7948,15.3941 C7.7658,15.3941 6.1678,17.3021 6.1678,19.8951" id="Stroke-11"></path>
                                <path d="M9.7948,12.0889 L9.7948,8.4539" id="Stroke-13"></path>
                                <polyline id="Stroke-15" points="13.9968 12.4105 13.9968 8.4535 13.9578 8.4535"></polyline>
                            </g>
                        </g>
                    </g>
                </g>
            </g>
        </g>
    </g>
</svg>