<?xml version="1.0" encoding="UTF-8" standalone="no"?>
<svg width="100px" height="100px" viewBox="0 0 100 100" version="1.1" xmlns="http://www.w3.org/2000/svg" xmlns:xlink="http://www.w3.org/1999/xlink">
    <!-- Generator: Sketch 3.8.3 (29802) - http://www.bohemiancoding.com/sketch -->
    <title>Facet</title>
    <desc>Created with Sketch.</desc>
    <defs></defs>
    <g id="Symbols" stroke="none" stroke-width="1" fill="none" fill-rule="evenodd">
        <g id="Facet">
            <g>
                <rect id="Rectangle-42" x="0" y="0" width="100" height="100"></rect>
                <g transform="translate(33.000000, 26.000000)" stroke-linecap="round" stroke="#247DFF">
                    <g>
                        <path d="M0.8821,29.9854 L9.6041,29.9854 L9.6041,27.3034 C9.6041,23.9594 11.0121,22.3734 14.3551,22.3734 L26.6731,22.3734 L26.6731,14.8094 L13.7781,14.8094 C3.9731,14.8094 0.8821,19.2944 0.8821,29.9854 L0.8821,29.9854 Z" id="Stroke-3" stroke-linejoin="round"></path>
                        <polygon id="Stroke-5" stroke-linejoin="round" points="26.673 26.133 33.118 26.133 33.118 11.768 26.673 11.768"></polygon>
                        <path d="M13.3085,4.6799 C13.3085,5.9189 13.8135,7.0489 14.6355,7.8499 C12.8255,8.6399 10.7635,9.1219 9.5465,9.1219 C7.1005,9.1219 5.1155,7.1369 5.1155,4.6799 C5.1155,2.2339 7.1005,0.2489 9.5465,0.2489 C10.7635,0.2489 12.8255,0.7309 14.6355,1.5099 C13.8135,2.3219 13.3085,3.4409 13.3085,4.6799 L13.3085,4.6799 Z" id="Stroke-7" stroke-linejoin="round"></path>
                        <path d="M14.6357,7.8497 C13.8127,7.0487 13.3087,5.9197 13.3087,4.6797 C13.3087,3.4407 13.8127,2.3217 14.6357,1.5097 C15.4367,0.7317 16.5337,0.2487 17.7397,0.2487 C18.9897,0.2487 20.1197,0.7637 20.9317,1.5977 C21.6997,2.3987 22.1707,3.4737 22.1707,4.6797 C22.1707,5.8867 21.6997,6.9727 20.9317,7.7617 C20.1197,8.6067 18.9897,9.1217 17.7397,9.1217 C16.5337,9.1217 15.4367,8.6397 14.6357,7.8497 L14.6357,7.8497 Z" id="Stroke-8" stroke-linejoin="round"></path>
                        <path d="M26.2073,0.2487 C28.6533,0.2487 30.6383,2.2337 30.6383,4.6797 C30.6383,7.1367 28.6533,9.1217 26.2073,9.1217 C24.9573,9.1217 22.7743,8.6067 20.9313,7.7617 C21.6993,6.9727 22.1713,5.8867 22.1713,4.6797 C22.1713,3.4737 21.6993,2.3987 20.9313,1.5977 C22.7743,0.7647 24.9573,0.2487 26.2073,0.2487 L26.2073,0.2487 Z" id="Stroke-9" stroke-linejoin="round"></path>
                        <path d="M10.1552,43.7726 C10.1552,46.2466 8.1502,48.2516 5.6762,48.2516 C3.2032,48.2516 1.1982,46.2466 1.1982,43.7726 C1.1982,39.3256 3.9322,37.8066 5.6762,34.6326 C7.1812,37.8986 10.1552,40.1486 10.1552,43.7726 L10.1552,43.7726 Z" id="Stroke-10"></path>
                        <polygon id="Stroke-11" stroke-linejoin="round" points="16.462 14.81 19.57 14.81 19.57 9.118 16.462 9.118"></polygon>
                    </g>
                </g>
            </g>
        </g>
    </g>
</svg>