<?xml version="1.0" encoding="UTF-8" standalone="no"?>
<svg width="100px" height="100px" viewBox="0 0 100 100" version="1.1" xmlns="http://www.w3.org/2000/svg" xmlns:xlink="http://www.w3.org/1999/xlink">
    <!-- Generator: Sketch 3.8.3 (29802) - http://www.bohemiancoding.com/sketch -->
    <title>Fiberglass roof</title>
    <desc>Created with Sketch.</desc>
    <defs></defs>
    <g id="Symbols" stroke="none" stroke-width="1" fill="none" fill-rule="evenodd">
        <g id="Fiberglass-roof">
            <g>
                <rect id="Rectangle-5" x="0" y="0" width="100" height="100"></rect>
                <g id="Fiberglass" transform="translate(17.000000, 29.000000)">
                    <g id="Page-1">
                        <polygon id="Fill-1" fill="#FFFFFF" points="46.0224 35.7941 46.3274 41.8621 66.0794 7.4541 66.0794 0.5781"></polygon>
                        <g id="Group-6" transform="translate(0.000000, 0.362300)" stroke-linecap="round" stroke="#328DF9" stroke-linejoin="round">
                            <polygon id="Stroke-2" points="66.0802 0.2157 66.0802 7.0917 46.3282 41.4997 46.0222 35.4317"></polygon>
                            <polygon id="Stroke-4" points="46.3279 41.5 0.7729 41.499 0.4999 35.354 46.0229 35.432"></polygon>
                        </g>
                        <polygon id="Fill-7" fill="#FFFFFF" points="47.6955 12.5453 59.2535 12.5653 66.0795 0.5783 54.5225 0.5583"></polygon>
                        <polygon id="Stroke-8" stroke="#328DF9" stroke-linecap="round" stroke-linejoin="round" points="47.6959 12.545 59.2529 12.565 66.0799 0.578 54.5229 0.558"></polygon>
                        <polygon id="Fill-10" fill="#FFFFFF" points="13.7306 12.4869 25.2876 12.5069 32.1146 0.5199 20.5576 0.4999"></polygon>
                        <polygon id="Stroke-11" stroke="#328DF9" stroke-linecap="round" stroke-linejoin="round" points="13.7306 12.4869 25.2876 12.5069 32.1146 0.5199 20.5576 0.4999"></polygon>
                        <polygon id="Fill-13" fill="#FFFFFF" points="24.8092 12.5058 48.1702 12.5458 54.9982 0.5588 31.6362 0.5188"></polygon>
                        <polygon id="Stroke-14" stroke="#328DF9" stroke-linecap="round" stroke-linejoin="round" points="24.8092 12.5058 48.1702 12.5458 54.9982 0.5588 31.6362 0.5188"></polygon>
                        <polygon id="Fill-16" fill="#FFFFFF" points="34.4654 35.7742 46.0224 35.7942 52.8494 23.8072 41.2924 23.7872"></polygon>
                        <polygon id="Stroke-17" stroke="#328DF9" stroke-linecap="round" stroke-linejoin="round" points="34.4654 35.7742 46.0224 35.7942 52.8494 23.8072 41.2924 23.7872"></polygon>
                        <polygon id="Fill-18" fill="#FFFFFF" points="0.5004 35.7158 12.0574 35.7358 18.8844 23.7498 7.3274 23.7298"></polygon>
                        <polygon id="Stroke-19" stroke="#328DF9" stroke-linecap="round" stroke-linejoin="round" points="0.5 35.7161 12.057 35.7361 18.884 23.7491 7.327 23.7291"></polygon>
                        <polygon id="Fill-21" fill="#FFFFFF" points="11.5786 35.735 34.9396 35.775 41.7676 23.788 18.4056 23.748"></polygon>
                        <polygon id="Stroke-22" stroke="#328DF9" stroke-linecap="round" stroke-linejoin="round" points="11.5786 35.735 34.9396 35.775 41.7676 23.788 18.4056 23.748"></polygon>
                        <polygon id="Fill-23" fill="#FFFFFF" points="30.0527 23.7682 52.8497 23.8072 59.6767 11.8202 36.8797 11.7812"></polygon>
                        <polygon id="Stroke-24" stroke="#328DF9" stroke-linecap="round" stroke-linejoin="round" points="30.0527 23.7682 52.8497 23.8072 59.6767 11.8202 36.8797 11.7812"></polygon>
                        <polygon id="Fill-25" fill="#FFFFFF" points="7.3273 23.7292 30.0523 23.7682 36.8803 11.7812 14.1543 11.7422"></polygon>
                        <polygon id="Stroke-26" stroke="#328DF9" stroke-linecap="round" stroke-linejoin="round" points="7.3273 23.7292 30.0523 23.7682 36.8803 11.7812 14.1543 11.7422"></polygon>
                        <g id="Group-87" transform="translate(6.000000, 3.362300)" fill="#328DF9">
                            <path d="M17.3017,1.1209 C17.3017,1.3969 17.0777,1.6209 16.8017,1.6209 C16.5257,1.6209 16.3017,1.3969 16.3017,1.1209 C16.3017,0.8449 16.5257,0.6209 16.8017,0.6209 C17.0777,0.6209 17.3017,0.8449 17.3017,1.1209" id="Fill-27"></path>
                            <path d="M34.4035,14.393 C34.4035,14.669 34.1795,14.893 33.9035,14.893 C33.6275,14.893 33.4035,14.669 33.4035,14.393 C33.4035,14.117 33.6275,13.893 33.9035,13.893 C34.1795,13.893 34.4035,14.117 34.4035,14.393" id="Fill-29"></path>
                            <path d="M38.1575,27.4284 C38.1575,27.7044 37.9335,27.9284 37.6575,27.9284 C37.3815,27.9284 37.1575,27.7044 37.1575,27.4284 C37.1575,27.1524 37.3815,26.9284 37.6575,26.9284 C37.9335,26.9284 38.1575,27.1524 38.1575,27.4284" id="Fill-31"></path>
                            <path d="M17.8017,25.871 C17.8017,26.147 17.5777,26.371 17.3017,26.371 C17.0257,26.371 16.8017,26.147 16.8017,25.871 C16.8017,25.595 17.0257,25.371 17.3017,25.371 C17.5777,25.371 17.8017,25.595 17.8017,25.871" id="Fill-33"></path>
                            <path d="M19.9139,37 C19.9139,37.276 19.6899,37.5 19.4139,37.5 C19.1379,37.5 18.9139,37.276 18.9139,37 C18.9139,36.724 19.1379,36.5 19.4139,36.5 C19.6899,36.5 19.9139,36.724 19.9139,37" id="Fill-35"></path>
                            <path d="M16.1037,30.7561 C16.1037,31.0321 15.8797,31.2561 15.6037,31.2561 C15.3277,31.2561 15.1037,31.0321 15.1037,30.7561 C15.1037,30.4801 15.3277,30.2561 15.6037,30.2561 C15.8797,30.2561 16.1037,30.4801 16.1037,30.7561" id="Fill-37"></path>
                            <path d="M1.3273,34.9269 C1.3273,35.2029 1.1033,35.4269 0.8273,35.4269 C0.5513,35.4269 0.3273,35.2029 0.3273,34.9269 C0.3273,34.6509 0.5513,34.4269 0.8273,34.4269 C1.1033,34.4269 1.3273,34.6509 1.3273,34.9269" id="Fill-39"></path>
                            <path d="M28.8484,27.9284 C28.8484,28.2044 28.6244,28.4284 28.3484,28.4284 C28.0724,28.4284 27.8484,28.2044 27.8484,27.9284 C27.8484,27.6524 28.0724,27.4284 28.3484,27.4284 C28.6244,27.4284 28.8484,27.6524 28.8484,27.9284" id="Fill-41"></path>
                            <path d="M34.4035,36.5 C34.4035,36.776 34.1795,37 33.9035,37 C33.6275,37 33.4035,36.776 33.4035,36.5 C33.4035,36.224 33.6275,36 33.9035,36 C34.1795,36 34.4035,36.224 34.4035,36.5" id="Fill-43"></path>
                            <path d="M47.3497,25.371 C47.3497,25.647 47.1257,25.871 46.8497,25.871 C46.5737,25.871 46.3497,25.647 46.3497,25.371 C46.3497,25.095 46.5737,24.871 46.8497,24.871 C47.1257,24.871 47.3497,25.095 47.3497,25.371" id="Fill-45"></path>
                            <path d="M23.5527,34.9269 C23.5527,35.2029 23.3287,35.4269 23.0527,35.4269 C22.7767,35.4269 22.5527,35.2029 22.5527,34.9269 C22.5527,34.6509 22.7767,34.4269 23.0527,34.4269 C23.3287,34.4269 23.5527,34.6509 23.5527,34.9269" id="Fill-47"></path>
                            <path d="M27.1149,7.0781 C27.1149,7.3541 26.8909,7.5781 26.6149,7.5781 C26.3389,7.5781 26.1149,7.3541 26.1149,7.0781 C26.1149,6.8021 26.3389,6.5781 26.6149,6.5781 C26.8909,6.5781 27.1149,6.8021 27.1149,7.0781" id="Fill-49"></path>
                            <path d="M51.3881,1.1209 C51.3881,1.3969 51.1641,1.6209 50.8881,1.6209 C50.6121,1.6209 50.3881,1.3969 50.3881,1.1209 C50.3881,0.8449 50.6121,0.6209 50.8881,0.6209 C51.1641,0.6209 51.3881,0.8449 51.3881,1.1209" id="Fill-51"></path>
                            <path d="M55.396,11.1177 C55.396,11.3937 55.172,11.6177 54.896,11.6177 C54.62,11.6177 54.396,11.3937 54.396,11.1177 C54.396,10.8417 54.62,10.6177 54.896,10.6177 C55.172,10.6177 55.396,10.8417 55.396,11.1177" id="Fill-53"></path>
                            <path d="M47.8497,11.1177 C47.8497,11.3937 47.6257,11.6177 47.3497,11.6177 C47.0737,11.6177 46.8497,11.3937 46.8497,11.1177 C46.8497,10.8417 47.0737,10.6177 47.3497,10.6177 C47.6257,10.6177 47.8497,10.8417 47.8497,11.1177" id="Fill-55"></path>
                            <path d="M50.5513,17.3578 C50.5513,17.6338 50.3273,17.8578 50.0513,17.8578 C49.7753,17.8578 49.5513,17.6338 49.5513,17.3578 C49.5513,17.0818 49.7753,16.8578 50.0513,16.8578 C50.3273,16.8578 50.5513,17.0818 50.5513,17.3578" id="Fill-57"></path>
                            <path d="M43.396,18.3883 C43.396,18.6643 43.172,18.8883 42.896,18.8883 C42.62,18.8883 42.396,18.6643 42.396,18.3883 C42.396,18.1123 42.62,17.8883 42.896,17.8883 C43.172,17.8883 43.396,18.1123 43.396,18.3883" id="Fill-59"></path>
                            <path d="M34.9035,0.6209 C34.9035,0.8969 34.6795,1.1209 34.4035,1.1209 C34.1275,1.1209 33.9035,0.8969 33.9035,0.6209 C33.9035,0.3449 34.1275,0.1209 34.4035,0.1209 C34.6795,0.1209 34.9035,0.3449 34.9035,0.6209" id="Fill-61"></path>
                            <path d="M26.6149,2.1209 C26.6149,2.3969 26.3909,2.6209 26.1149,2.6209 C25.8389,2.6209 25.6149,2.3969 25.6149,2.1209 C25.6149,1.8449 25.8389,1.6209 26.1149,1.6209 C26.3909,1.6209 26.6149,1.8449 26.6149,2.1209" id="Fill-63"></path>
                            <path d="M36.7672,6.5781 C36.7672,6.8541 36.5432,7.0781 36.2672,7.0781 C35.9912,7.0781 35.7672,6.8541 35.7672,6.5781 C35.7672,6.3021 35.9912,6.0781 36.2672,6.0781 C36.5432,6.0781 36.7672,6.3021 36.7672,6.5781" id="Fill-65"></path>
                            <path d="M23.5527,1.6209 C23.5527,1.8969 23.3287,2.1209 23.0527,2.1209 C22.7767,2.1209 22.5527,1.8969 22.5527,1.6209 C22.5527,1.3449 22.7767,1.1209 23.0527,1.1209 C23.3287,1.1209 23.5527,1.3449 23.5527,1.6209" id="Fill-67"></path>
                            <path d="M24.5527,13.893 C24.5527,14.169 24.3287,14.393 24.0527,14.393 C23.7767,14.393 23.5527,14.169 23.5527,13.893 C23.5527,13.617 23.7767,13.393 24.0527,13.393 C24.3287,13.393 24.5527,13.617 24.5527,13.893" id="Fill-69"></path>
                            <path d="M18.9139,10.6177 C18.9139,10.8937 18.6899,11.1177 18.4139,11.1177 C18.1379,11.1177 17.9139,10.8937 17.9139,10.6177 C17.9139,10.3417 18.1379,10.1177 18.4139,10.1177 C18.6899,10.1177 18.9139,10.3417 18.9139,10.6177" id="Fill-71"></path>
                            <path d="M18.4139,18.8883 C18.4139,19.1643 18.1899,19.3883 17.9139,19.3883 C17.6379,19.3883 17.4139,19.1643 17.4139,18.8883 C17.4139,18.6123 17.6379,18.3883 17.9139,18.3883 C18.1899,18.3883 18.4139,18.6123 18.4139,18.8883" id="Fill-73"></path>
                            <path d="M13.3843,26.4284 C13.3843,26.7044 13.1603,26.9284 12.8843,26.9284 C12.6083,26.9284 12.3843,26.7044 12.3843,26.4284 C12.3843,26.1524 12.6083,25.9284 12.8843,25.9284 C13.1603,25.9284 13.3843,26.1524 13.3843,26.4284" id="Fill-75"></path>
                            <path d="M18.4139,4.9228 C18.4139,5.1988 18.1899,5.4228 17.9139,5.4228 C17.6379,5.4228 17.4139,5.1988 17.4139,4.9228 C17.4139,4.6468 17.6379,4.4228 17.9139,4.4228 C18.1899,4.4228 18.4139,4.6468 18.4139,4.9228" id="Fill-77"></path>
                            <path d="M12.8843,6.0781 C12.8843,6.3541 12.6603,6.5781 12.3843,6.5781 C12.1083,6.5781 11.8843,6.3541 11.8843,6.0781 C11.8843,5.8021 12.1083,5.5781 12.3843,5.5781 C12.6603,5.5781 12.8843,5.8021 12.8843,6.0781" id="Fill-79"></path>
                            <path d="M13.3843,12.8014 C13.3843,13.0774 13.1603,13.3014 12.8843,13.3014 C12.6083,13.3014 12.3843,13.0774 12.3843,12.8014 C12.3843,12.5254 12.6083,12.3014 12.8843,12.3014 C13.1603,12.3014 13.3843,12.5254 13.3843,12.8014" id="Fill-81"></path>
                            <path d="M6.0786,18.3883 C6.0786,18.6643 5.8546,18.8883 5.5786,18.8883 C5.3026,18.8883 5.0786,18.6643 5.0786,18.3883 C5.0786,18.1123 5.3026,17.8883 5.5786,17.8883 C5.8546,17.8883 6.0786,18.1123 6.0786,18.3883" id="Fill-83"></path>
                            <path d="M4.1922,26.9284 C4.1922,27.2044 3.9682,27.4284 3.6922,27.4284 C3.4162,27.4284 3.1922,27.2044 3.1922,26.9284 C3.1922,26.6524 3.4162,26.4284 3.6922,26.4284 C3.9682,26.4284 4.1922,26.6524 4.1922,26.9284" id="Fill-85"></path>
                        </g>
                    </g>
                </g>
            </g>
        </g>
    </g>
</svg>