<?xml version="1.0" encoding="UTF-8" standalone="no"?>
<svg width="41px" height="50px" viewBox="0 0 41 50" version="1.1" xmlns="http://www.w3.org/2000/svg" xmlns:xlink="http://www.w3.org/1999/xlink">
    <!-- Generator: Sketch 39.1 (31720) - http://www.bohemiancoding.com/sketch -->
    <title>Central fire alarm</title>
    <desc>Created with Sketch.</desc>
    <defs></defs>
    <g id="Page-1" stroke="none" stroke-width="1" fill="none" fill-rule="evenodd">
        <g id="Discounts-part-1---Default---Desktop" transform="translate(-297.000000, -329.000000)">
            <g id="Central-Fire-Alarm" transform="translate(200.000000, 270.000000)">
                <g id="Central-fire-alarm" transform="translate(67.000000, 34.000000)">
                    <g>
                        <rect id="Rectangle-32" x="0" y="0" width="100" height="100"></rect>
                        <g transform="translate(30.000000, 25.000000)" id="Page-1">
                            <g>
                                <path d="M35.0816327,49.4897959 L5.6122449,49.4897959 C2.79489796,49.4897959 0.510204082,47.205102 0.510204082,44.3877551 L0.510204082,5.6122449 C0.510204082,2.79489796 2.79489796,0.510204082 5.6122449,0.510204082 L35.0816327,0.510204082 C37.8989796,0.510204082 40.1836735,2.79489796 40.1836735,5.6122449 L40.1836735,44.3877551 C40.1836735,47.205102 37.8989796,49.4897959 35.0816327,49.4897959 L35.0816327,49.4897959 Z" id="Stroke-1" stroke="#7D5CF6" stroke-linecap="round" stroke-linejoin="round"></path>
                                <path d="M32.2296939,17.4319388 L8.46438776,17.4319388 C7.33683673,17.4319388 6.42357143,18.3452041 6.42357143,19.4727551 L6.42357143,30.5268367 C6.42357143,31.6543878 7.33683673,32.5676531 8.46438776,32.5676531 C8.46438776,32.5676531 14.495,33.2207143 14.495,33.5982653 L14.495,41.2196939 C14.495,42.3472449 15.4092857,43.2605102 16.5358163,43.2605102 L24.1572449,43.2605102 C25.2847959,43.2605102 26.1980612,42.3472449 26.1980612,41.2196939 L26.1980612,33.5982653 C26.1980612,33.2207143 32.2296939,32.5676531 32.2296939,32.5676531 C33.3572449,32.5676531 34.2705102,31.6543878 34.2705102,30.5268367 L34.2705102,19.4727551 C34.2705102,18.3452041 33.3572449,17.4319388 32.2296939,17.4319388 L32.2296939,17.4319388 Z" id="Stroke-3" stroke="#7D5CF6" stroke-linecap="round" stroke-linejoin="round"></path>
                                <polyline id="Stroke-5" stroke="#7D5CF6" stroke-linecap="round" stroke-linejoin="round" points="20.3531633 20.0680612 20.3531633 34.1833673 15.3837755 29.215"></polyline>
                                <path d="M20.3531633,34.1836735 L25.2103061,29.3265306" id="Stroke-7" stroke="#7D5CF6" stroke-linecap="round" stroke-linejoin="round"></path>
                                <path d="M8.25795918,12.4544898 C8.25795918,12.4544898 5.39571429,12.2340816 5.39571429,9.95346939 C5.39571429,7.67285714 6.89979592,7.81877551 7.3844898,6.6055102 C7.87020408,5.39326531 7.96714286,4.56877551 7.62734694,4.37387755 C7.28755102,4.18 8.64571429,4.27693878 9.32530612,5.19938776 C10.004898,6.12081633 10.7804082,7.62489796 8.40387755,10.0993878 C7.70387755,10.7779592 8.25795918,12.4544898 8.25795918,12.4544898" id="Fill-9" fill="#7D5CF6"></path>
                                <path d="M10.8778571,8.10989796 C10.8778571,8.10989796 12.6247959,10.3466327 9.22785714,12.4547959 C9.22785714,12.4547959 8.35540816,11.7752041 9.32581633,10.5731633 C10.2952041,9.37112245 10.0043878,9.85683673 10.8778571,8.10989796" id="Fill-11" fill="#7D5CF6"></path>
                            </g>
                        </g>
                    </g>
                </g>
            </g>
        </g>
    </g>
</svg>