<?xml version="1.0" encoding="UTF-8" standalone="no"?>
<svg width="33px" height="49px" viewBox="0 0 33 49" version="1.1" xmlns="http://www.w3.org/2000/svg" xmlns:xlink="http://www.w3.org/1999/xlink">
    <!-- Generator: Sketch 3.8.3 (29802) - http://www.bohemiancoding.com/sketch -->
    <title>Fire</title>
    <desc>Created with Sketch.</desc>
    <defs></defs>
    <g id="Symbols" stroke="none" stroke-width="1" fill="none" fill-rule="evenodd">
        <g id="Fire" transform="translate(-34.000000, -26.000000)">
            <g>
                <rect id="Rectangle-15" x="0" y="0" width="100" height="100"></rect>
                <g transform="translate(34.000000, 26.000000)" stroke-linecap="round" stroke="#FC664D" stroke-linejoin="round">
                    <g>
                        <path d="M30.1111,43.5455 L3.4851,48.2375 C2.1021,48.4815 0.7831,47.5575 0.5391,46.1745 L0.5391,46.1745 C0.2951,44.7905 1.2191,43.4715 2.6021,43.2275 L29.2281,38.5365 C30.6121,38.2925 31.9311,39.2165 32.1741,40.5995 L32.1741,40.5995 C32.4181,41.9825 31.4941,43.3015 30.1111,43.5455 L30.1111,43.5455 Z" id="Stroke-1"></path>
                        <path d="M30.313,43.51 C31.692,43.777 32.392,45.061 32.125,46.44 L32.125,46.44 C31.858,47.819 30.524,48.72 29.145,48.453 L16.695,46.005" id="Stroke-3"></path>
                        <path d="M2.1613,43.3057 C1.0213,43.0847 0.4633,41.9997 0.6793,40.8817 L0.6793,40.8817 C0.8963,39.7637 1.9963,39.0367 3.1363,39.2577 L13.7603,41.2617" id="Stroke-5"></path>
                        <path d="M16.3567,37.3807 C8.3517,37.3807 7.2007,28.8577 9.0987,25.6857 C10.9957,22.5147 14.6867,20.5137 14.6867,16.4537 C18.1317,20.9287 18.0177,20.3057 16.3567,23.9207 C14.6957,27.5367 15.2457,29.0367 17.4817,29.3437 C19.7177,29.6507 21.8907,25.8557 20.2757,23.9207 C24.2117,28.0647 23.5967,29.6437 21.6417,31.5737 C21.6417,31.5737 23.4657,31.4827 23.4657,33.7627 C23.4657,36.6707 20.7477,37.3807 16.3567,37.3807 L16.3567,37.3807 Z" id="Stroke-7"></path>
                        <path d="M16.3041,37.3807 C2.4381,37.3807 -0.9339,25.3027 2.3531,19.8077 C3.5881,17.7417 6.7731,16.4537 4.0381,11.9637 C6.5051,12.2567 8.3031,12.2377 8.9631,15.3387 C15.1541,9.2277 12.7941,2.9337 10.3311,0.8027 C14.3451,-0.4943 19.2701,2.5687 19.6351,6.3087 C19.9271,9.3027 17.0801,12.7567 19.5731,14.2337 C21.2981,15.2547 25.7161,11.8497 22.9181,8.4977 C30.8541,13.7877 25.3811,15.1557 25.3811,18.5307 C25.3811,23.2747 32.9921,26.2837 29.7591,32.1217 C27.5331,36.1417 23.9111,37.3807 16.3041,37.3807 L16.3041,37.3807 Z" id="Stroke-9"></path>
                    </g>
                </g>
            </g>
        </g>
    </g>
</svg>