<?xml version="1.0" encoding="UTF-8" standalone="no"?>
<svg width="100px" height="100px" viewBox="0 0 100 100" version="1.1" xmlns="http://www.w3.org/2000/svg" xmlns:xlink="http://www.w3.org/1999/xlink">
    <!-- Generator: Sketch 3.8.3 (29802) - http://www.bohemiancoding.com/sketch -->
    <title>Vacant Ghost</title>
    <desc>Created with Sketch.</desc>
    <defs></defs>
    <g id="Symbols" stroke="none" stroke-width="1" fill="none" fill-rule="evenodd">
        <g id="Vacant-Ghost" stroke="#7D5CF6">
            <g id="Page-1" transform="translate(27.000000, 26.000000)">
                <path d="M16.5691,11.8411 C14.3001,11.8411 12.4611,13.6801 12.4611,15.9491 C12.4611,18.2181 14.3001,20.0561 16.5691,20.0561 C18.8381,20.0561 20.6771,18.2181 20.6771,15.9491 C20.6771,13.6801 18.8381,11.8411 16.5691,11.8411 L16.5691,11.8411 Z" id="Stroke-1"></path>
                <path d="M30.2613,11.8411 C27.9923,11.8411 26.1533,13.6801 26.1533,15.9491 C26.1533,18.2181 27.9923,20.0561 30.2613,20.0561 C32.5303,20.0561 34.3693,18.2181 34.3693,15.9491 C34.3693,13.6801 32.5303,11.8411 30.2613,11.8411 L30.2613,11.8411 Z" id="Stroke-3"></path>
                <path d="M45.8398,41.2329 C42.7398,36.8219 42.0898,18.7559 42.0898,18.7559 C42.0898,8.7149 33.8748,0.4999 23.8338,0.4999 L23.4928,0.4999 L23.1518,0.4999 C13.1108,0.4999 4.8948,8.7149 4.8948,18.7559 C4.8948,18.7559 4.2448,36.8219 1.1458,41.2329 C-1.8212,45.4549 6.2598,43.5149 8.7358,43.5149 C10.4928,43.5149 8.2238,47.6229 14.0108,47.6229 C16.3508,47.6229 16.9168,45.1139 19.2628,46.3189 C20.8768,47.1489 20.5948,48.4689 23.4928,48.4989 C27.3798,48.5409 26.7328,46.5259 28.1508,46.1219 C30.1938,45.5399 31.1448,47.6059 33.4578,47.6059 C38.0318,47.6059 36.4928,43.5149 38.2488,43.5149 C40.7258,43.5149 48.8068,45.4549 45.8398,41.2329 L45.8398,41.2329 Z" id="Stroke-5"></path>
            </g>
        </g>
    </g>
</svg>