<?xml version="1.0" encoding="UTF-8" standalone="no"?>
<svg width="53px" height="49px" viewBox="0 0 53 49" version="1.1" xmlns="http://www.w3.org/2000/svg" xmlns:xlink="http://www.w3.org/1999/xlink">
    <!-- Generator: Sketch 3.8.3 (29802) - http://www.bohemiancoding.com/sketch -->
    <title>Broken heart</title>
    <desc>Created with Sketch.</desc>
    <defs></defs>
    <g id="Symbols" stroke="none" stroke-width="1" fill="none" fill-rule="evenodd">
        <g id="Broken-heart" transform="translate(-24.000000, -26.000000)">
            <g>
                <rect id="Rectangle-5" x="0" y="0" width="100" height="100"></rect>
                <g transform="translate(24.000000, 26.000000)" id="Page-1">
                    <g>
                        <path d="M37.36,0.5 C29.645,0.5 26.166,6.8 26.166,6.8 C26.166,6.8 22.687,0.5 14.971,0.5 C3.515,0.5 -15.608,17.975 26.166,48.5 C67.939,17.975 48.816,0.5 37.36,0.5 L37.36,0.5 Z" id="Stroke-1" stroke="#19DD84" stroke-linecap="round" stroke-linejoin="round"></path>
                        <path d="M14.2906,14.122 C14.2906,14.95 13.6186,15.622 12.7906,15.622 C11.9626,15.622 11.2906,14.95 11.2906,14.122 C11.2906,13.294 11.9626,12.622 12.7906,12.622 C13.6186,12.622 14.2906,13.294 14.2906,14.122" id="Fill-3" fill="#19DD84"></path>
                        <path d="M41.0406,14.122 C41.0406,14.95 40.3686,15.622 39.5406,15.622 C38.7126,15.622 38.0406,14.95 38.0406,14.122 C38.0406,13.294 38.7126,12.622 39.5406,12.622 C40.3686,12.622 41.0406,13.294 41.0406,14.122" id="Fill-5" fill="#19DD84"></path>
                        <path d="M16.2214,27.5 C16.2214,27.5 17.0454,20.125 26.1654,20.125 C35.2864,20.125 36.1094,27.5 36.1094,27.5" id="Stroke-7" stroke="#19DD84" stroke-linecap="round" stroke-linejoin="round"></path>
                    </g>
                </g>
            </g>
        </g>
    </g>
</svg>