<?xml version="1.0" encoding="UTF-8" standalone="no"?>
<svg width="49px" height="48px" viewBox="0 0 49 48" version="1.1" xmlns="http://www.w3.org/2000/svg" xmlns:xlink="http://www.w3.org/1999/xlink">
    <!-- Generator: Sketch 39.1 (31720) - http://www.bohemiancoding.com/sketch -->
    <title>house</title>
    <desc>Created with Sketch.</desc>
    <defs></defs>
    <g id="Page-1" stroke="none" stroke-width="1" fill="none" fill-rule="evenodd">
        <g id="house">
            <g id="Page-1">
                <g id="House">
                    <g id="Group">
                        <g id="Group-5" transform="translate(19.000000, 32.000000)" stroke="#87949A">
                            <polygon id="Stroke-3" points="0.847 14.5 10.847 14.5 10.847 0.255 0.847 0.255"></polygon>
                        </g>
                        <polygon id="Stroke-6" stroke="#87949A" points="31.544 29.7417 39.224 29.7417 39.224 23.3617 31.544 23.3617"></polygon>
                        <polyline id="Stroke-7" stroke="#87949A" points="7.6975 14.7018 7.6975 7.2978 12.1705 7.2978 12.1705 11.6528"></polyline>
                        <polygon id="Stroke-8" stroke="#87949A" points="10.625 29.7417 18.305 29.7417 18.305 23.3617 10.625 23.3617"></polygon>
                        <polyline id="Stroke-9" stroke="#87949A" points="43.1519 20.0757 43.1579 40.4027 43.1509 46.5257 6.5429 46.5257 6.5429 22.6077 6.5429 21.3107 6.5429 19.7377 0.9409 19.7377 24.8479 2.5257 48.7539 19.7377 5.8889 19.7377"></polyline>
                        <polyline id="Stroke-11" stroke="#87949A" points="42.1524 19.7367 24.8474 8.0847 7.5434 19.7377"></polyline>
                        <g id="Group-16" transform="translate(3.000000, 0.025700)" fill="#87949A">
                            <path d="M6.9596,4.6662 C7.2716,4.6662 7.5376,4.4362 7.5736,4.1202 C7.5836,4.0282 7.6546,3.1942 7.0176,2.4822 C6.4776,1.8792 5.6236,1.5732 4.4786,1.5732 L4.4126,1.5772 C3.7046,1.6522 2.5256,1.5942 2.1206,1.2302 C2.0346,1.1532 1.9996,1.0722 1.9996,0.9532 C1.9996,0.6112 1.7216,0.3342 1.3796,0.3342 C1.0376,0.3342 0.7596,0.6112 0.7596,0.9532 C0.7596,1.4252 0.9446,1.8402 1.2926,2.1532 C2.2286,2.9932 4.1526,2.8472 4.5096,2.8122 C5.2496,2.8172 5.7936,2.9842 6.0826,3.2962 C6.3666,3.6032 6.3416,3.9782 6.3396,3.9932 C6.3146,4.3302 6.5626,4.6322 6.8996,4.6632 C6.9196,4.6652 6.9396,4.6662 6.9596,4.6662" id="Fill-12"></path>
                            <path d="M24.8008,39.3773 C24.8008,40.0673 24.2408,40.6273 23.5508,40.6273 C22.8608,40.6273 22.3008,40.0673 22.3008,39.3773 C22.3008,38.6873 22.8608,38.1273 23.5508,38.1273 C24.2408,38.1273 24.8008,38.6873 24.8008,39.3773" id="Fill-14"></path>
                        </g>
                    </g>
                </g>
            </g>
        </g>
    </g>
</svg>