<?xml version="1.0" encoding="UTF-8" standalone="no"?>
<svg width="80px" height="80px" viewBox="0 0 80 80" version="1.1" xmlns="http://www.w3.org/2000/svg" xmlns:xlink="http://www.w3.org/1999/xlink">
    <!-- Generator: Sketch 3.8.3 (29802) - http://www.bohemiancoding.com/sketch -->
    <title>Basic house - 80px</title>
    <desc>Created with Sketch.</desc>
    <defs></defs>
    <g id="Symbols" stroke="none" stroke-width="1" fill="none" fill-rule="evenodd">
        <g id="Basic-house---80px">
            <g id="Basic-house---mini">
                <g id="Standard-house">
                    <g>
                        <rect id="Rectangle-17" x="0" y="0" width="80" height="80"></rect>
                        <g id="Standard-House" transform="translate(13.600000, 22.400000)">
                            <g id="Page-1">
                                <polygon id="Stroke-1" stroke="#247DFF" stroke-linecap="round" stroke-linejoin="round" points="22.5592 37.73296 30.5592 37.73296 30.5592 26.33696 22.5592 26.33696"></polygon>
                                <polygon id="Stroke-3" stroke="#247DFF" stroke-linecap="round" stroke-linejoin="round" points="31.9168 24.30576 38.0608 24.30576 38.0608 19.20176 31.9168 19.20176"></polygon>
                                <polyline id="Stroke-4" stroke="#247DFF" stroke-linecap="round" stroke-linejoin="round" points="12.83912 12.27384 12.83912 6.35064 16.41752 6.35064 16.41752 9.83464"></polyline>
                                <polygon id="Stroke-5" stroke="#247DFF" stroke-linecap="round" stroke-linejoin="round" points="15.1808 24.30576 21.3248 24.30576 21.3248 19.20176 15.1808 19.20176"></polygon>
                                <g id="Group-17" transform="translate(0.000000, 0.532960)">
                                    <polyline id="Stroke-6" stroke="#247DFF" stroke-linecap="round" stroke-linejoin="round" points="11.91568 37.2 11.91568 18.0656 11.91568 17.028 11.91568 15.7696 7.43408 15.7696 26.55888 2 45.68448 15.7696 11.39248 15.7696"></polyline>
                                    <polyline id="Stroke-8" stroke="#247DFF" stroke-linecap="round" stroke-linejoin="round" points="41.20264 16.04 41.20744 32.3016 41.20184 37.2"></polyline>
                                    <path d="M14.6488,3.73296 C14.8984,3.73296 15.1112,3.54896 15.14,3.29616 C15.148,3.22256 15.2048,2.55536 14.6952,1.98576 C14.2632,1.50336 13.58,1.25856 12.664,1.25856 L12.6112,1.26176 C12.0448,1.32176 11.1016,1.27536 10.7776,0.98416 C10.7088,0.92256 10.6808,0.85776 10.6808,0.76256 C10.6808,0.48896 10.4584,0.26736 10.1848,0.26736 C9.9112,0.26736 9.6888,0.48896 9.6888,0.76256 C9.6888,1.14016 9.8368,1.47216 10.1152,1.72256 C10.864,2.39456 12.4032,2.27776 12.6888,2.24976 C13.2808,2.25376 13.716,2.38736 13.9472,2.63696 C14.1744,2.88256 14.1544,3.18256 14.1528,3.19456 C14.1328,3.46416 14.3312,3.70576 14.6008,3.73056 C14.6168,3.73216 14.6328,3.73296 14.6488,3.73296" id="Fill-10" fill="#247DFF"></path>
                                    <path d="M28.92168,31.50184 C28.92168,32.05384 28.47368,32.50184 27.92168,32.50184 C27.36968,32.50184 26.92168,32.05384 26.92168,31.50184 C26.92168,30.94984 27.36968,30.50184 27.92168,30.50184 C28.47368,30.50184 28.92168,30.94984 28.92168,31.50184" id="Fill-12" fill="#247DFF"></path>
                                    <g id="Group-16" transform="translate(-0.000000, 36.800000)" stroke="#247DFF" stroke-linecap="round" stroke-linejoin="round">
                                        <path d="M0.4,2.62900812e-13 L52.8064,2.62900812e-13" id="Stroke-14"></path>
                                    </g>
                                </g>
                            </g>
                        </g>
                    </g>
                </g>
            </g>
        </g>
    </g>
</svg>