<?xml version="1.0" encoding="UTF-8" standalone="no"?>
<svg width="80px" height="80px" viewBox="0 0 80 80" version="1.1" xmlns="http://www.w3.org/2000/svg" xmlns:xlink="http://www.w3.org/1999/xlink">
    <!-- Generator: Sketch 3.8.3 (29802) - http://www.bohemiancoding.com/sketch -->
    <title>Premium house - 80px</title>
    <desc>Created with Sketch.</desc>
    <defs></defs>
    <g id="Symbols" stroke="none" stroke-width="1" fill="none" fill-rule="evenodd">
        <g id="Premium-house---80px">
            <g id="Premium-house">
                <rect id="Rectangle-17" x="0" y="0" width="80" height="80"></rect>
                <g id="Page-1" transform="translate(12.000000, 12.800000)">
                    <polygon id="Stroke-1" stroke="#FC664D" stroke-linecap="round" stroke-linejoin="round" points="24.1848 47.89176 32.1848 47.89176 32.1848 36.49576 24.1848 36.49576"></polygon>
                    <polygon id="Stroke-3" stroke="#FC664D" stroke-linecap="round" stroke-linejoin="round" points="33.5424 34.46456 39.6864 34.46456 39.6864 29.36056 33.5424 29.36056"></polygon>
                    <polyline id="Stroke-4" stroke="#FC664D" stroke-linecap="round" stroke-linejoin="round" points="14.46512 22.43264 14.46512 16.50944 18.04352 16.50944 18.04352 19.99344"></polyline>
                    <polygon id="Stroke-5" stroke="#FC664D" stroke-linecap="round" stroke-linejoin="round" points="16.8072 34.46456 22.9512 34.46456 22.9512 29.36056 16.8072 29.36056"></polygon>
                    <g id="Group-17" transform="translate(0.000000, 12.291760)" stroke="#FC664D" stroke-linecap="round" stroke-linejoin="round">
                        <polyline id="Stroke-6" points="13.5416 35.6 13.5416 16.4656 13.5416 15.428 13.5416 14.1696 9.06 14.1696 28.1848 0.4 47.3104 14.1696 13.0184 14.1696"></polyline>
                        <polyline id="Stroke-8" points="42.82856 14.44 42.83336 30.7016 42.82776 35.6"></polyline>
                        <g id="Group-12" transform="translate(1.600000, 35.200000)">
                            <path d="M0.426,0.4 L52.8324,0.4" id="Stroke-10"></path>
                        </g>
                        <path d="M5.08568,18.8172 L0.40008,19.4308" id="Stroke-13"></path>
                        <path d="M5.49952,11.19448 L0.86512,10.27128" id="Stroke-15"></path>
                    </g>
                    <path d="M8.33864,16.39992 L4.24584,14.03752" id="Stroke-18" stroke="#FC664D" stroke-linecap="round" stroke-linejoin="round"></path>
                    <path d="M13.30248,10.60016 L10.18488,7.04896" id="Stroke-19" stroke="#FC664D" stroke-linecap="round" stroke-linejoin="round"></path>
                    <path d="M19.86544,6.70096 L18.05264,2.33696" id="Stroke-20" stroke="#FC664D" stroke-linecap="round" stroke-linejoin="round"></path>
                    <path d="M27.3328,5.11504 L27.0168,0.39984" id="Stroke-21" stroke="#FC664D" stroke-linecap="round" stroke-linejoin="round"></path>
                    <path d="M34.91408,6.0104 L36.12848,1.4432" id="Stroke-23" stroke="#FC664D" stroke-linecap="round" stroke-linejoin="round"></path>
                    <path d="M41.80656,9.29224 L44.42336,5.35704" id="Stroke-24" stroke="#FC664D" stroke-linecap="round" stroke-linejoin="round"></path>
                    <path d="M47.28064,14.61312 L51.02224,11.72592" id="Stroke-25" stroke="#FC664D" stroke-linecap="round" stroke-linejoin="round"></path>
                    <path d="M50.75672,21.40968 L55.22712,19.87688" id="Stroke-26" stroke="#FC664D" stroke-linecap="round" stroke-linejoin="round"></path>
                    <path d="M43.5,26.7 L43.5,47.7" id="Line" stroke="#FC664D" stroke-linecap="square"></path>
                    <g id="Group-31" transform="translate(28.000000, 28.291760)">
                        <path d="M23.86696,0.67064 L28.59256,0.65384" id="Stroke-27" stroke="#FC664D" stroke-linecap="round" stroke-linejoin="round"></path>
                        <path d="M2.54768,13.90184 C2.54768,14.45384 2.09968,14.90184 1.54768,14.90184 C0.99568,14.90184 0.54768,14.45384 0.54768,13.90184 C0.54768,13.34984 0.99568,12.90184 1.54768,12.90184 C2.09968,12.90184 2.54768,13.34984 2.54768,13.90184" id="Fill-29" fill="#FC664D"></path>
                    </g>
                </g>
            </g>
        </g>
    </g>
</svg>