<?xml version="1.0" encoding="UTF-8" standalone="no"?>
<svg width="48px" height="46px" viewBox="0 0 48 46" version="1.1" xmlns="http://www.w3.org/2000/svg" xmlns:xlink="http://www.w3.org/1999/xlink">
    <!-- Generator: Sketch 39.1 (31720) - http://www.bohemiancoding.com/sketch -->
    <title>House - error state</title>
    <desc>Created with Sketch.</desc>
    <defs></defs>
    <g id="Page-1" stroke="none" stroke-width="1" fill="none" fill-rule="evenodd">
        <g id="House---error-state" transform="translate(-26.000000, -27.000000)">
            <g id="Page-1">
                <g id="House---error-state">
                    <rect id="Rectangle-50" x="0" y="0" width="100" height="100"></rect>
                    <g id="Group" transform="translate(26.000000, 27.000000)" stroke="#3185FF">
                        <g>
                            <polygon id="Stroke-3" points="28.372 26.8422 33.295 26.8422 33.295 21.9192 28.372 21.9192"></polygon>
                            <polygon id="Stroke-4" points="14.702 26.8422 19.625 26.8422 19.625 21.9192 14.702 21.9192"></polygon>
                            <g id="Group-15" transform="translate(0.000000, 0.440200)">
                                <path d="M28.5188,35.7654 C28.5188,38.2504 26.5038,40.2654 24.0188,40.2654 C21.5338,40.2654 19.5188,38.2504 19.5188,35.7654 C19.5188,33.2804 21.5338,31.2654 24.0188,31.2654 C26.5038,31.2654 28.5188,33.2804 28.5188,35.7654 L28.5188,35.7654 L28.5188,35.7654 Z" id="Stroke-5"></path>
                                <path d="M11.7065,20.2826 C12.2385,17.7546 15.5645,15.9706 17.0275,16.5966" id="Stroke-7"></path>
                                <path d="M36.5178,20.2826 C35.9858,17.7546 32.6598,15.9706 31.1968,16.5966" id="Stroke-9"></path>
                                <polyline id="Stroke-11" points="6.8919 12.2616 6.8919 4.8576 11.3649 4.8576 11.3649 9.2126"></polyline>
                                <polygon id="Stroke-13" points="24.0003 0.5 47.9063 17.712 42.3043 17.712 42.3043 44.5 5.6963 44.5 5.6963 17.712 0.0933 17.712"></polygon>
                            </g>
                        </g>
                    </g>
                </g>
            </g>
        </g>
    </g>
</svg>