<?xml version="1.0" encoding="UTF-8" standalone="no"?>
<svg width="16px" height="24px" viewBox="0 0 16 24" version="1.1" xmlns="http://www.w3.org/2000/svg" xmlns:xlink="http://www.w3.org/1999/xlink">
    <!-- Generator: Sketch 39.1 (31720) - http://www.bohemiancoding.com/sketch -->
    <title>ice-cream</title>
    <desc>Created with Sketch.</desc>
    <defs></defs>
    <g id="Page-1" stroke="none" stroke-width="1" fill="none" fill-rule="evenodd">
        <g id="ice-cream" stroke="#87949A">
            <g id="Page-1">
                <g id="ice-cream">
                    <g id="Page-1">
                        <g id="Ice-Cream-Cone">
                            <g id="Page-1">
                                <polyline id="Stroke-1" points="3.9491 10.8923 7.4581 23.2893 11.2421 10.8923"></polyline>
                                <path d="M11.2421,3.9491 C11.1751,3.9491 11.1101,3.9551 11.0441,3.9591 C11.0441,3.9561 11.0451,3.9521 11.0451,3.9491 C11.0451,2.0441 9.5001,0.5001 7.5951,0.5001 C5.6911,0.5001 4.1461,2.0441 4.1461,3.9491 C4.1461,3.9521 4.1471,3.9561 4.1471,3.9591 C4.0811,3.9551 4.0161,3.9491 3.9491,3.9491 C2.0441,3.9491 0.5001,5.4931 0.5001,7.3981 C0.5001,9.3031 2.0441,10.8471 3.9491,10.8471 C4.7971,10.8471 5.5721,10.5401 6.1721,10.0331 C6.7731,10.5401 7.5481,10.8471 8.3961,10.8471 C8.9041,10.8471 9.3851,10.7351 9.8191,10.5371 C10.2531,10.7351 10.7341,10.8471 11.2421,10.8471 C13.1471,10.8471 14.6911,9.3031 14.6911,7.3981 C14.6911,5.4931 13.1471,3.9491 11.2421,3.9491 L11.2421,3.9491 L11.2421,3.9491 L11.2421,3.9491 Z" id="Stroke-3"></path>
                                <path d="M4.26,11.9909 C6.685,14.8169 9.211,14.3399 10.208,14.2809" id="Stroke-5"></path>
                                <path d="M5.3187,15.6872 C6.8237,16.8542 8.2687,16.9682 9.2577,16.9292" id="Stroke-7"></path>
                                <path d="M6.2009,18.8508 C7.0459,19.3038 7.8459,19.4668 8.5229,19.5098" id="Stroke-9"></path>
                            </g>
                        </g>
                    </g>
                </g>
            </g>
        </g>
    </g>
</svg>