<?xml version="1.0" encoding="UTF-8" standalone="no"?>
<svg width="64px" height="50px" viewBox="0 0 64 50" version="1.1" xmlns="http://www.w3.org/2000/svg" xmlns:xlink="http://www.w3.org/1999/xlink">
    <!-- Generator: Sketch 39.1 (31720) - http://www.bohemiancoding.com/sketch -->
    <title>injured-foot</title>
    <desc>Created with Sketch.</desc>
    <defs></defs>
    <g id="Page-1" stroke="none" stroke-width="1" fill="none" fill-rule="evenodd">
        <g id="injured-foot" stroke="#87949A">
            <g id="Page-1">
                <g id="Injured-Foot">
                    <g id="Group">
                        <g>
                            <path d="M56.0365,18.9433 C57.5215,18.9433 58.8315,19.9023 59.2815,21.3183 C61.5555,28.4823 67.1655,49.3913 55.1495,49.3913 L7.8545,49.3913 C7.1885,49.3913 6.6495,48.8523 6.6495,48.1873 L6.6495,46.6093 C6.6495,43.6813 6.8635,36.9613 8.8785,35.0363 C10.0875,33.8813 20.3465,33.4283 26.3465,29.6973 C31.2585,26.6433 29.8465,18.9433 33.9825,18.9433 L56.0365,18.9433 L56.0365,18.9433 L56.0365,18.9433 Z" id="Stroke-1"></path>
                            <path d="M6.6496,37.8913 C6.6496,37.8913 0.8346,38.0703 0.5136,42.2243 C0.1656,46.7243 6.6496,47.6093 6.6496,47.6093" id="Stroke-3"></path>
                            <path d="M8.8783,35.0365 C8.8783,35.0365 11.5133,49.3915 23.0133,49.3915" id="Stroke-5"></path>
                            <path d="M23.0135,32.058 C23.0135,32.058 26.8465,49.391 45.1805,49.391" id="Stroke-7"></path>
                            <path d="M32.701,19.3705 C32.701,19.3705 42.637,39.7605 62.325,39.7605" id="Stroke-9"></path>
                            <path d="M59.1682,20.9658 C59.1682,20.9658 54.0132,33.4278 45.1802,33.4278" id="Stroke-11"></path>
                            <path d="M36.5135,18.3705 L36.5135,0.5005" id="Stroke-13"></path>
                            <path d="M55.8469,18.3705 L55.8469,0.5005" id="Stroke-15"></path>
                        </g>
                    </g>
                </g>
            </g>
        </g>
    </g>
</svg>