<?xml version="1.0" encoding="UTF-8" standalone="no"?>
<svg width="72px" height="42px" viewBox="0 0 72 42" version="1.1" xmlns="http://www.w3.org/2000/svg" xmlns:xlink="http://www.w3.org/1999/xlink">
    <!-- Generator: Sketch 39.1 (31720) - http://www.bohemiancoding.com/sketch -->
    <title>laptop</title>
    <desc>Created with Sketch.</desc>
    <defs></defs>
    <g id="Page-1" stroke="none" stroke-width="1" fill="none" fill-rule="evenodd">
        <g id="laptop" transform="translate(1.000000, 1.000000)">
            <g id="Page-1">
                <g id="Laptop">
                    <g id="Group">
                        <polygon id="Stroke-3" stroke="#87949A" points="12.556 31.952 58.89 31.952 58.89 4.233 12.556 4.233"></polygon>
                        <g id="Group-10">
                            <path d="M69.6772,36.0576 L0.3232,36.0576 L0.3232,36.8666 C0.3232,38.5976 1.7252,39.9996 3.4562,39.9996 L66.5442,39.9996 C68.2742,39.9996 69.6772,38.5976 69.6772,36.8666 L69.6772,36.0576 L69.6772,36.0576 L69.6772,36.0576 Z" id="Stroke-4" stroke="#87949A"></path>
                            <path d="M59.9769,0 L11.4689,0 C9.8119,0 8.4689,1.343 8.4689,3 L8.4689,36.058 L62.9769,36.058 L62.9769,3 C62.9769,1.343 61.6339,0 59.9769,0 L59.9769,0 L59.9769,0 Z" id="Stroke-6" stroke="#87949A"></path>
                            <path d="M36.7275,2.019 C36.7275,2.482 36.3525,2.857 35.8895,2.857 C35.4265,2.857 35.0515,2.482 35.0515,2.019 C35.0515,1.556 35.4265,1.181 35.8895,1.181 C36.3525,1.181 36.7275,1.556 36.7275,2.019" id="Fill-8" fill="#87949A"></path>
                        </g>
                    </g>
                </g>
            </g>
        </g>
    </g>
</svg>