<?xml version="1.0" encoding="UTF-8" standalone="no"?>
<svg width="32px" height="50px" viewBox="0 0 32 50" version="1.1" xmlns="http://www.w3.org/2000/svg" xmlns:xlink="http://www.w3.org/1999/xlink">
    <!-- Generator: Sketch 39.1 (31720) - http://www.bohemiancoding.com/sketch -->
    <title>Map pin</title>
    <desc>Created with Sketch.</desc>
    <defs></defs>
    <g id="Page-1" stroke="none" stroke-width="1" fill="none" fill-rule="evenodd">
        <g id="Checkout---Default---Desktop" transform="translate(-199.000000, -1878.000000)">
            <g id="Billing-Address" transform="translate(164.000000, 1853.000000)">
                <g id="Map-pin">
                    <rect id="Rectangle-32" x="0" y="0" width="100" height="100"></rect>
                    <g id="Map" transform="translate(35.000000, 26.000000)" stroke-linecap="round" stroke="#328DF9" stroke-linejoin="round">
                        <g>
                            <path d="M30.9914,15.7457 C30.9914,26.4777 15.7454,48.4997 15.7454,48.4997 C15.7454,48.4997 0.5004,26.4777 0.5004,15.7457 C0.5004,7.3257 7.3254,0.4997 15.7454,0.4997 C24.1654,0.4997 30.9914,7.3257 30.9914,15.7457 L30.9914,15.7457 Z" id="Stroke-1"></path>
                            <path d="M23.2038,14.9622 C23.2038,19.0812 19.8648,22.4202 15.7458,22.4202 C11.6268,22.4202 8.2878,19.0812 8.2878,14.9622 C8.2878,10.8432 11.6268,7.5042 15.7458,7.5042 C19.8648,7.5042 23.2038,10.8432 23.2038,14.9622 L23.2038,14.9622 Z" id="Stroke-3"></path>
                        </g>
                    </g>
                </g>
            </g>
        </g>
    </g>
</svg>