<?xml version="1.0" encoding="UTF-8" standalone="no"?>
<svg width="62px" height="51px" viewBox="0 0 62 51" version="1.1" xmlns="http://www.w3.org/2000/svg" xmlns:xlink="http://www.w3.org/1999/xlink">
    <!-- Generator: Sketch 39.1 (31720) - http://www.bohemiancoding.com/sketch -->
    <title>money</title>
    <desc>Created with Sketch.</desc>
    <defs></defs>
    <g id="Page-1" stroke="none" stroke-width="1" fill="none" fill-rule="evenodd">
        <g id="money" stroke="#87949A">
            <g id="Page-1">
                <g id="Money">
                    <g id="Group">
                        <path d="M34.3388776,13.322551 C36.5858163,14.3439796 38.3021429,16.3021429 37.7572449,18.0286735 C36.939898,20.6143878 32.0807143,21.1245918 28.3388776,18.4164286 C25.3623469,16.2623469 25.8807143,13.7919388 28.1460204,12.8705102 C29.8235714,12.189898 32.3480612,12.4164286 34.3388776,13.322551 L34.3388776,13.322551 L34.3388776,13.322551 Z" id="Stroke-3"></path>
                        <polyline id="Stroke-5" points="50.1695918 12.3221429 53.8471429 9.95785714 50.49 8.53234694"></polyline>
                        <polyline id="Stroke-7" points="24.5128571 28.9026531 20.4016327 31.5444898 17.1761224 29.5087755"></polyline>
                        <polyline id="Stroke-9" points="42.8134694 5.74479592 39.8757143 4.49785714 36.3206122 6.52438776"></polyline>
                        <polyline id="Stroke-11" points="10.5979592 21.104898 6.60408163 23.3814286 10.2183673 25.6640816"></polyline>
                        <polygon id="Stroke-13" points="0.134693878 23.7178571 20.0846939 36.3127551 61.0897959 9.95867347 39.994898 0.999489796"></polygon>
                        <polygon id="Stroke-15" points="20.085102 36.3129592 3.77591837 26.0170408 0.135102041 28.092551 20.085102 40.687449 61.0891837 14.3323469 56.9912245 12.592551"></polygon>
                        <polygon id="Stroke-17" points="20.085102 45.3205102 4.01265306 35.1745918 0.135102041 37.3847959 20.085102 49.9796939 61.0891837 23.6245918 56.7238776 21.7715306"></polygon>
                        <polygon id="Stroke-19" points="20.085102 40.6873469 4.01265306 30.5414286 0.135102041 32.7516327 20.085102 45.3465306 61.0891837 18.9914286 56.7238776 17.1383673"></polygon>
                    </g>
                </g>
            </g>
        </g>
    </g>
</svg>