<?xml version="1.0" encoding="UTF-8" standalone="no"?>
<svg width="100px" height="100px" viewBox="0 0 100 100" version="1.1" xmlns="http://www.w3.org/2000/svg" xmlns:xlink="http://www.w3.org/1999/xlink">
    <!-- Generator: Sketch 3.8.3 (29802) - http://www.bohemiancoding.com/sketch -->
    <title>Outlet</title>
    <desc>Created with Sketch.</desc>
    <defs>
        <polygon id="path-1" points="0 49 31.316 49 31.316 0 0 0"></polygon>
    </defs>
    <g id="Symbols" stroke="none" stroke-width="1" fill="none" fill-rule="evenodd">
        <g id="Outlet">
            <g>
                <rect id="Rectangle-43" x="0" y="0" width="100" height="100"></rect>
                <g transform="translate(34.000000, 26.000000)">
                    <g>
                        <path d="M14.0274,27.2016 L10.3904,27.2016 C5.3974,30.9596 5.2124,38.1056 10.3904,41.8066 L14.0274,41.8066 L15.4734,41.8066 L20.9254,41.8066 C26.1034,38.1056 25.9184,30.9596 20.9254,27.2016 L15.4734,27.2016 L14.0274,27.2016 L14.0274,27.2016 Z" id="Stroke-1" stroke="#7D5CF6" stroke-linecap="round" stroke-linejoin="round"></path>
                        <path d="M17.2283,37.5249 C17.2283,37.5249 16.9153,36.4409 15.6583,36.4409 C14.4003,36.4409 14.0873,37.5249 14.0873,37.5249 L14.0873,39.9269 L17.2283,39.9269 L17.2283,37.5249 Z" id="Fill-3" fill="#7D5CF6"></path>
                        <path d="M12.7504,35.0065 L12.7504,30.7905" id="Stroke-5" stroke="#7D5CF6" stroke-linecap="round" stroke-linejoin="round"></path>
                        <path d="M18.5658,35.0065 L18.5658,30.7905" id="Stroke-7" stroke="#7D5CF6" stroke-linecap="round" stroke-linejoin="round"></path>
                        <path d="M14.0274,7.8668 L10.3904,7.8668 C5.3974,11.6248 5.2124,18.7708 10.3904,22.4718 L14.0274,22.4718 L15.4734,22.4718 L20.9254,22.4718 C26.1034,18.7708 25.9184,11.6248 20.9254,7.8668 L15.4734,7.8668 L14.0274,7.8668 L14.0274,7.8668 Z" id="Stroke-9" stroke="#7D5CF6" stroke-linecap="round" stroke-linejoin="round"></path>
                        <path d="M17.2283,18.19 C17.2283,18.19 16.9153,17.106 15.6583,17.106 C14.4003,17.106 14.0873,18.19 14.0873,18.19 L14.0873,20.592 L17.2283,20.592 L17.2283,18.19 Z" id="Fill-11" fill="#7D5CF6"></path>
                        <path d="M12.7504,15.6717 L12.7504,11.4557" id="Stroke-13" stroke="#7D5CF6" stroke-linecap="round" stroke-linejoin="round"></path>
                        <path d="M18.5658,15.6717 L18.5658,11.4557" id="Stroke-15" stroke="#7D5CF6" stroke-linecap="round" stroke-linejoin="round"></path>
                        <mask id="mask-2" fill="white">
                            <use xlink:href="#path-1"></use>
                        </mask>
                        <g id="Clip-18"></g>
                        <polygon id="Stroke-17" stroke="#7D5CF6" stroke-linecap="round" stroke-linejoin="round" mask="url(#mask-2)" points="0.5 48.5 30.816 48.5 30.816 0.5 0.5 0.5"></polygon>
                    </g>
                </g>
            </g>
        </g>
    </g>
</svg>