<?xml version="1.0" encoding="UTF-8" standalone="no"?>
<svg width="100px" height="100px" viewBox="0 0 100 100" version="1.1" xmlns="http://www.w3.org/2000/svg" xmlns:xlink="http://www.w3.org/1999/xlink">
    <!-- Generator: Sketch 3.8.3 (29802) - http://www.bohemiancoding.com/sketch -->
    <title>Cake</title>
    <desc>Created with Sketch.</desc>
    <defs></defs>
    <g id="Symbols" stroke="none" stroke-width="1" fill="none" fill-rule="evenodd">
        <g id="Cake">
            <g>
                <rect id="Rectangle-40" x="0" y="0" width="100" height="100"></rect>
                <g transform="translate(28.000000, 26.000000)" stroke-linecap="round" stroke="#7D5CF6" stroke-linejoin="round">
                    <g>
                        <polygon id="Stroke-1" points="0.5 47.3354 43.107 47.3354 43.107 29.5504 0.5 29.5504"></polygon>
                        <polygon id="Stroke-3" points="8.244 29.5504 35.363 29.5504 35.363 17.6094 8.244 17.6094"></polygon>
                        <g id="Group-12" transform="translate(0.000000, 0.835400)">
                            <path d="M0.5,36.6077 C2.865,36.6077 2.865,38.6077 5.231,38.6077 C7.597,38.6077 7.597,36.6077 9.963,36.6077 C12.329,36.6077 12.329,38.6077 14.696,38.6077 C17.062,38.6077 17.062,36.6077 19.428,36.6077 C21.794,36.6077 21.794,38.6077 24.16,38.6077 C26.526,38.6077 26.526,36.6077 28.892,36.6077 C31.26,36.6077 31.26,38.6077 33.628,38.6077 C35.998,38.6077 35.998,36.6077 38.367,36.6077 C40.737,36.6077 40.737,38.6077 43.107,38.6077" id="Stroke-4"></path>
                            <path d="M8.3503,21.7449 C10.5403,21.7449 10.5403,23.7449 12.7303,23.7449 C14.9203,23.7449 14.9203,21.7449 17.1093,21.7449 C19.2993,21.7449 19.2993,23.7449 21.4893,23.7449 C23.6813,23.7449 23.6813,21.7449 25.8723,21.7449 C28.0663,21.7449 28.0663,23.7449 30.2593,23.7449 C32.4523,23.7449 32.4523,21.7449 34.6453,21.7449" id="Stroke-6"></path>
                            <path d="M21.835,16.7744 L21.835,8.3614" id="Stroke-8"></path>
                            <path d="M21.7036,6.6601 C21.7036,6.6601 25.6306,5.5771 21.4616,0.6641 C21.4616,0.6641 18.3096,6.8541 21.7036,6.6601 L21.7036,6.6601 Z" id="Stroke-10"></path>
                        </g>
                    </g>
                </g>
            </g>
        </g>
    </g>
</svg>