<?xml version="1.0" encoding="UTF-8" standalone="no"?>
<svg width="100px" height="100px" viewBox="0 0 100 100" version="1.1" xmlns="http://www.w3.org/2000/svg" xmlns:xlink="http://www.w3.org/1999/xlink">
    <!-- Generator: Sketch 3.8.2 (29753) - http://www.bohemiancoding.com/sketch -->
    <title>Tralier - alt Copy</title>
    <desc>Created with Sketch.</desc>
    <defs></defs>
    <g id="Page-1" stroke="none" stroke-width="1" fill="none" fill-rule="evenodd">
        <g id="Labels" transform="translate(-1603.000000, -2093.000000)"></g>
        <g id="Tralier---alt-Copy">
            <g id="Page-1" transform="translate(23.000000, 25.000000)">
                <path d="M8.0977,14.6333 L6.4997,14.6333 C3.1867,14.6333 0.4997,17.3193 0.4997,20.6333 L0.4997,43.8823 C0.4997,47.1963 2.1867,49.8823 5.4997,49.8823 L7.9967,49.8823 L8.0977,14.6333 L8.0977,14.6333 Z" id="Stroke-1" stroke="#247DFF" stroke-linecap="round" stroke-linejoin="round"></path>
                <path d="M45.957,50.4153 L5.125,49.8333 C5.125,49.8333 7.098,48.1663 7.098,44.1663 L7.098,6.5003 C7.098,3.2003 9.798,0.5003 13.098,0.5003 L46.04,0.5003 C49.34,0.5003 52.04,3.2003 52.04,6.5003 L52.04,44.4163 C52.04,47.7623 49.303,50.4623 45.957,50.4153" id="Fill-3" fill="#FFFFFF"></path>
                <path d="M45.957,50.4153 L5.125,49.8333 C5.125,49.8333 7.098,48.1663 7.098,44.1663 L7.098,6.5003 C7.098,3.2003 9.798,0.5003 13.098,0.5003 L46.04,0.5003 C49.34,0.5003 52.04,3.2003 52.04,6.5003 L52.04,44.4163 C52.04,47.7623 49.303,50.4623 45.957,50.4153 L45.957,50.4153 Z" id="Stroke-5" stroke="#247DFF" stroke-linecap="round" stroke-linejoin="round"></path>
                <g id="Group-10" transform="translate(16.000000, 41.915900)">
                    <path d="M0.4161,0.4754 L27.7491,0.4754" id="Fill-7" fill="#FFFFFF"></path>
                    <path d="M0.4161,0.4754 L27.7491,0.4754" id="Stroke-9" stroke="#247DFF" stroke-linecap="round" stroke-linejoin="round"></path>
                </g>
                <g id="Group-14" transform="translate(16.000000, 29.915900)">
                    <path d="M0.4161,0.142 L23.1251,0.142" id="Fill-11" fill="#FFFFFF"></path>
                    <path d="M0.4161,0.142 L23.1251,0.142" id="Stroke-13" stroke="#247DFF" stroke-linecap="round" stroke-linejoin="round"></path>
                </g>
                <g id="Group-18" transform="translate(16.000000, 35.915900)">
                    <path d="M0.4161,0.392 L16.3621,0.392" id="Fill-15" fill="#FFFFFF"></path>
                    <path d="M0.4161,0.392 L16.3621,0.392" id="Stroke-17" stroke="#247DFF" stroke-linecap="round" stroke-linejoin="round"></path>
                </g>
                <polyline id="Stroke-19" stroke="#247DFF" stroke-linecap="round" stroke-linejoin="round" points="18.2689 14.4468 21.1449 17.3228 26.5249 11.9428"></polyline>
                <path d="M30.0828,14.6333 C30.0828,18.8783 26.6418,22.3193 22.3968,22.3193 C18.1528,22.3193 14.7118,18.8783 14.7118,14.6333 C14.7118,10.3883 18.1528,6.9473 22.3968,6.9473 C26.6418,6.9473 30.0828,10.3883 30.0828,14.6333 L30.0828,14.6333 Z" id="Stroke-21" stroke="#247DFF" stroke-linecap="round" stroke-linejoin="round"></path>
            </g>
        </g>
    </g>
</svg>