<?xml version="1.0" encoding="UTF-8" standalone="no"?>
<svg width="100px" height="100px" viewBox="0 0 100 100" version="1.1" xmlns="http://www.w3.org/2000/svg" xmlns:xlink="http://www.w3.org/1999/xlink">
    <!-- Generator: Sketch 3.8.3 (29802) - http://www.bohemiancoding.com/sketch -->
    <title>Roof-only</title>
    <desc>Created with Sketch.</desc>
    <defs></defs>
    <g id="Symbols" stroke="none" stroke-width="1" fill="none" fill-rule="evenodd">
        <g id="Roof-only">
            <g>
                <rect id="Rectangle-32" x="0" y="0" width="100" height="100"></rect>
                <g transform="translate(20.000000, 37.000000)" id="Page-1">
                    <g>
                        <polyline id="Stroke-1" stroke="#7C5BF4" stroke-linecap="round" stroke-linejoin="round" points="13.0087 15.3423 13.0087 7.9383 17.4817 7.9383 17.4817 12.2933"></polyline>
                        <g id="Group-8" transform="translate(0.000000, 0.099900)">
                            <polyline id="Stroke-2" stroke="#7C5BF4" stroke-linecap="round" stroke-linejoin="round" points="0.5 24.5 6.252 20.278 30.159 3.066 54.065 20.278 59.069 24.278"></polyline>
                            <polyline id="Stroke-4" stroke="#7C5BF4" stroke-linecap="round" stroke-linejoin="round" points="6.252 24.2783 30.159 7.0663 54.065 24.2783"></polyline>
                            <path d="M15.2708,5.2325 C15.5828,5.2325 15.8488,5.0025 15.8848,4.6865 C15.8948,4.5945 15.9658,3.7605 15.3288,3.0485 C14.7888,2.4455 13.9348,2.1395 12.7898,2.1395 L12.7238,2.1435 C12.0158,2.2185 10.8368,2.1605 10.4318,1.7965 C10.3458,1.7195 10.3108,1.6385 10.3108,1.5195 C10.3108,1.1775 10.0328,0.9005 9.6908,0.9005 C9.3488,0.9005 9.0708,1.1775 9.0708,1.5195 C9.0708,1.9915 9.2558,2.4065 9.6038,2.7195 C10.5398,3.5595 12.4638,3.4135 12.8208,3.3785 C13.5608,3.3835 14.1048,3.5505 14.3938,3.8625 C14.6778,4.1695 14.6528,4.5445 14.6508,4.5595 C14.6258,4.8965 14.8738,5.1985 15.2108,5.2295 C15.2308,5.2315 15.2508,5.2325 15.2708,5.2325" id="Fill-6" fill="#7C5BF4"></path>
                        </g>
                    </g>
                </g>
            </g>
        </g>
    </g>
</svg>