<?xml version="1.0" encoding="UTF-8" standalone="no"?>
<svg width="49px" height="50px" viewBox="0 0 49 50" version="1.1" xmlns="http://www.w3.org/2000/svg" xmlns:xlink="http://www.w3.org/1999/xlink">
    <!-- Generator: Sketch 39.1 (31720) - http://www.bohemiancoding.com/sketch -->
    <title>Spinkler</title>
    <desc>Created with Sketch.</desc>
    <defs></defs>
    <g id="Page-1" stroke="none" stroke-width="1" fill="none" fill-rule="evenodd">
        <g id="Discounts-part-1---Default---Desktop" transform="translate(-1024.000000, -329.000000)">
            <g id="Sprinkler-System" transform="translate(932.000000, 270.000000)">
                <g id="Spinkler" transform="translate(67.000000, 34.000000)">
                    <g id="Spinler">
                        <rect id="Rectangle-4" x="0" y="0" width="100" height="100"></rect>
                        <g id="Sprinkler" transform="translate(26.000000, 26.000000)" stroke-linecap="round" stroke="#328DF9" stroke-linejoin="round">
                            <g>
                                <g id="Group-5" transform="translate(16.000000, 0.000000)">
                                    <polygon id="Stroke-3" points="0.645 5.97 14.199 5.97 14.199 0.476 0.645 0.476"></polygon>
                                </g>
                                <polygon id="Stroke-6" points="26.6852 11.4637 23.4222 15.4697 20.1592 11.4637 20.1592 5.9697 26.6852 5.9697"></polygon>
                                <path d="M11.8764,0.4759 L33.7484,0.4759" id="Stroke-7"></path>
                                <path d="M20.1586,16.1553 L26.6846,16.1553" id="Stroke-9"></path>
                                <g id="Group-20" transform="translate(0.000000, 20.000000)" stroke-width="2" stroke-dasharray="1,4.2">
                                    <path d="M0.628,16.2333 C13.961,32.5683 33.375,30.4883 47.372,14.4453" id="Stroke-10"></path>
                                    <path d="M5.3411,11.9707 C15.9851,25.0107 31.4841,23.3507 42.6581,10.5427" id="Stroke-12"></path>
                                    <path d="M8.8371,7.8489 C17.4871,17.8219 30.0821,16.5519 39.1621,6.7569" id="Stroke-14"></path>
                                    <path d="M18.435,0.6054 C21.61,4.2664 26.232,3.7994 29.565,0.2044" id="Stroke-16"></path>
                                    <path d="M14.2518,4.1286 C19.8128,11.0176 27.9108,10.1406 33.7478,3.3746" id="Stroke-18"></path>
                                </g>
                            </g>
                        </g>
                    </g>
                </g>
            </g>
        </g>
    </g>
</svg>