<?xml version="1.0" encoding="UTF-8" standalone="no"?>
<svg width="100px" height="100px" viewBox="0 0 100 100" version="1.1" xmlns="http://www.w3.org/2000/svg" xmlns:xlink="http://www.w3.org/1999/xlink">
    <!-- Generator: Sketch 3.8.3 (29802) - http://www.bohemiancoding.com/sketch -->
    <title>Stilts house</title>
    <desc>Created with Sketch.</desc>
    <defs></defs>
    <g id="Symbols" stroke="none" stroke-width="1" fill="none" fill-rule="evenodd">
        <g id="Stilts-house">
            <g>
                <rect id="Rectangle-32" x="0" y="0" width="100" height="100"></rect>
                <g id="Page-1" transform="translate(29.000000, 24.000000)">
                    <polygon id="Stroke-1" stroke="#1ADE85" stroke-linecap="round" stroke-linejoin="round" points="16.588 37.943 25.098 37.943 25.098 25.821 16.588 25.821"></polygon>
                    <polygon id="Stroke-2" stroke="#1ADE85" stroke-linecap="round" stroke-linejoin="round" points="26.542 23.66 33.078 23.66 33.078 18.231 26.542 18.231"></polygon>
                    <polyline id="Stroke-3" stroke="#1ADE85" stroke-linecap="round" stroke-linejoin="round" points="6.2497 10.8615 6.2497 4.5615 10.0557 4.5615 10.0557 8.2675"></polyline>
                    <polygon id="Stroke-4" stroke="#1ADE85" stroke-linecap="round" stroke-linejoin="round" points="8.74 23.66 15.276 23.66 15.276 18.231 8.74 18.231"></polygon>
                    <polyline id="Stroke-5" stroke="#1ADE85" stroke-linecap="round" stroke-linejoin="round" points="36.4203 15.4345 36.4253 32.7325 36.4193 37.9425 5.2673 37.9425 5.2673 17.5885 5.2673 16.4855 5.2673 15.1465 0.5003 15.1465 20.8443 0.4995 41.1873 15.1465 4.7103 15.1465"></polyline>
                    <polyline id="Stroke-7" stroke="#1ADE85" stroke-linecap="round" stroke-linejoin="round" points="35.5697 15.146 20.8437 5.23 6.1187 15.147"></polyline>
                    <g id="Group-28" transform="translate(6.000000, 30.000000)">
                        <path d="M17.357,1.8815 C17.357,2.4685 16.88,2.9455 16.293,2.9455 C15.706,2.9455 15.23,2.4685 15.23,1.8815 C15.23,1.2945 15.706,0.8175 16.293,0.8175 C16.88,0.8175 17.357,1.2945 17.357,1.8815" id="Fill-8" fill="#1ADE85"></path>
                        <path d="M6.1884,17.3442 L6.1884,7.9422" id="Stroke-10" stroke="#1ADE85" stroke-linecap="round" stroke-linejoin="round"></path>
                        <polygon id="Stroke-12" stroke="#1ADE85" stroke-linecap="round" stroke-linejoin="round" points="6.1884 16.5 8.4074 20.344 3.9694 20.344"></polygon>
                        <path d="M23.4795,7.9426 L23.4795,17.3446" id="Stroke-14" stroke="#1ADE85" stroke-linecap="round" stroke-linejoin="round"></path>
                        <polygon id="Stroke-16" stroke="#1ADE85" stroke-linecap="round" stroke-linejoin="round" points="23.4795 16.5 25.6985 20.344 21.2605 20.344"></polygon>
                        <g id="Group-20" transform="translate(0.000000, 20.000000)" stroke="#1ADE85" stroke-linecap="round" stroke-linejoin="round">
                            <path d="M0.3206,0.5 L12.0566,0.5" id="Stroke-18"></path>
                        </g>
                        <g id="Group-23" transform="translate(17.000000, 20.000000)" stroke="#1ADE85" stroke-linecap="round" stroke-linejoin="round">
                            <path d="M0.6117,0.5 L12.3477,0.5" id="Stroke-21"></path>
                        </g>
                        <path d="M23.4795,16.5 L19.0985,8.667" id="Stroke-24" stroke="#1ADE85" stroke-linecap="round" stroke-linejoin="round"></path>
                        <path d="M6.1884,16.5 L10.5884,8.667" id="Stroke-26" stroke="#1ADE85" stroke-linecap="round" stroke-linejoin="round"></path>
                    </g>
                </g>
            </g>
        </g>
    </g>
</svg>