<?xml version="1.0" encoding="UTF-8" standalone="no"?>
<svg width="69px" height="52px" viewBox="0 0 69 52" version="1.1" xmlns="http://www.w3.org/2000/svg" xmlns:xlink="http://www.w3.org/1999/xlink">
    <!-- Generator: Sketch 3.8.3 (29802) - http://www.bohemiancoding.com/sketch -->
    <title>Suitcase - alt</title>
    <desc>Created with Sketch.</desc>
    <defs></defs>
    <g id="Symbols" stroke="none" stroke-width="1" fill="none" fill-rule="evenodd">
        <g id="Suitcase---alt" transform="translate(-15.000000, -24.000000)">
            <g>
                <rect id="Rectangle-32" x="0" y="0" width="100" height="100"></rect>
                <g transform="translate(16.000000, 25.000000)" stroke="#7C5BF4">
                    <g>
                        <g>
                            <path d="M61.2368478,49.6368478 L5.52054348,49.6368478 C2.53141304,49.6368478 0.0857608696,47.1911957 0.0857608696,44.2020652 L0.0857608696,13.6988043 C0.0857608696,10.7096739 2.53141304,8.26402174 5.52054348,8.26402174 L61.2368478,8.26402174 C64.2259783,8.26402174 66.6716304,10.7096739 66.6716304,13.6988043 L66.6716304,44.2020652 C66.6716304,47.1911957 64.2259783,49.6368478 61.2368478,49.6368478 L61.2368478,49.6368478 Z" id="Stroke-3"></path>
                            <path d="M43.7792391,0.185978261 L22.9781522,0.185978261 C22.3803261,0.185978261 21.8911957,0.675108696 21.8911957,1.27293478 L21.8911957,7.17728261 C21.8911957,7.7751087 22.3803261,8.26423913 22.9781522,8.26423913 L43.7792391,8.26423913 C44.3770652,8.26423913 44.8661957,7.7751087 44.8661957,7.17728261 L44.8661957,1.27293478 C44.8661957,0.675108696 44.3770652,0.185978261 43.7792391,0.185978261 L43.7792391,0.185978261 Z" id="Stroke-5"></path>
                            <path d="M16.2427174,8.49999999 L16.2427174,49.9995652" id="Stroke-7"></path>
                            <path d="M50.8707609,8.26445652 L50.8707609,49.4999988" id="Stroke-15"></path>
                        </g>
                    </g>
                </g>
            </g>
        </g>
    </g>
</svg>