<?xml version="1.0" encoding="UTF-8" standalone="no"?>
<svg width="100px" height="100px" viewBox="0 0 100 100" version="1.1" xmlns="http://www.w3.org/2000/svg" xmlns:xlink="http://www.w3.org/1999/xlink">
    <!-- Generator: Sketch 3.8.3 (29802) - http://www.bohemiancoding.com/sketch -->
    <title>Seasonal</title>
    <desc>Created with Sketch.</desc>
    <defs></defs>
    <g id="Symbols" stroke="none" stroke-width="1" fill="none" fill-rule="evenodd">
        <g id="Seasonal" stroke="#328DF9">
            <g id="Suitcase" transform="translate(16.000000, 25.000000)">
                <g>
                    <path d="M61.2368478,49.6368478 L5.52054348,49.6368478 C2.53141304,49.6368478 0.0857608696,47.1911957 0.0857608696,44.2020652 L0.0857608696,13.6988043 C0.0857608696,10.7096739 2.53141304,8.26402174 5.52054348,8.26402174 L61.2368478,8.26402174 C64.2259783,8.26402174 66.6716304,10.7096739 66.6716304,13.6988043 L66.6716304,44.2020652 C66.6716304,47.1911957 64.2259783,49.6368478 61.2368478,49.6368478 L61.2368478,49.6368478 Z" id="Stroke-3"></path>
                    <path d="M43.7792391,0.185978261 L22.9781522,0.185978261 C22.3803261,0.185978261 21.8911957,0.675108696 21.8911957,1.27293478 L21.8911957,7.17728261 C21.8911957,7.7751087 22.3803261,8.26423913 22.9781522,8.26423913 L43.7792391,8.26423913 C44.3770652,8.26423913 44.8661957,7.7751087 44.8661957,7.17728261 L44.8661957,1.27293478 C44.8661957,0.675108696 44.3770652,0.185978261 43.7792391,0.185978261 L43.7792391,0.185978261 Z" id="Stroke-5"></path>
                    <path d="M16.2427174,28.6278261 L16.2427174,49.9995652" id="Stroke-7"></path>
                    <path d="M16.2427174,8.05869565 L16.2427174,20.85" id="Stroke-9"></path>
                    <path d="M23.3933696,27.7801087 L10.5879348,29.4072826 C9.99445652,29.4822826 9.44771739,29.0594565 9.37271739,28.4659783 L8.68793478,23.0801087 C8.61293478,22.4866304 9.03576087,21.9398913 9.62923913,21.8648913 L22.4346739,20.2377174 C23.0281522,20.1616304 23.5748913,20.5855435 23.6498913,21.1790217 L24.3346739,26.5648913 C24.4096739,27.1583696 23.9868478,27.7051087 23.3933696,27.7801087 L23.3933696,27.7801087 Z" id="Stroke-11"></path>
                    <path d="M50.8707609,40.4828261 L50.8707609,50.0002174" id="Stroke-13"></path>
                    <path d="M50.8707609,8.26445652 L50.8707609,32.4459783" id="Stroke-15"></path>
                    <path d="M57.4795652,41.2621739 L44.7480435,39.1295652 C44.158913,39.0306522 43.7567391,38.4676087 43.8556522,37.8773913 L44.7534783,32.5230435 C44.8513043,31.9328261 45.4154348,31.5317391 46.0045652,31.6306522 L58.736087,33.7632609 C59.3252174,33.8621739 59.7273913,34.4252174 59.6284783,35.0154348 L58.7306522,40.3697826 C58.6328261,40.958913 58.0686957,41.361087 57.4795652,41.2621739 L57.4795652,41.2621739 Z" id="Stroke-17"></path>
                </g>
            </g>
        </g>
    </g>
</svg>