<?xml version="1.0" encoding="UTF-8" standalone="no"?>
<svg width="100px" height="100px" viewBox="0 0 100 100" version="1.1" xmlns="http://www.w3.org/2000/svg" xmlns:xlink="http://www.w3.org/1999/xlink">
    <!-- Generator: Sketch 3.8.3 (29802) - http://www.bohemiancoding.com/sketch -->
    <title>Thermo - h/c</title>
    <desc>Created with Sketch.</desc>
    <defs></defs>
    <g id="Symbols" stroke="none" stroke-width="1" fill="none" fill-rule="evenodd">
        <g id="Thermo---h/c">
            <g>
                <rect id="Rectangle-43" x="0" y="0" width="100" height="100"></rect>
                <g id="Thermometer" transform="translate(27.000000, 26.000000)" stroke-linecap="round" stroke="#FC664D" stroke-linejoin="round">
                    <g>
                        <path d="M28.529,37.3492 C28.529,40.1152 26.286,42.3582 23.52,42.3582 C20.754,42.3582 18.511,40.1152 18.511,37.3492 C18.511,34.5832 20.754,32.3402 23.52,32.3402 C26.286,32.3402 28.529,34.5832 28.529,37.3492 L28.529,37.3492 Z" id="Stroke-1"></path>
                        <path d="M28.525,27.4067 L28.525,2.8847 C28.525,1.5747 27.451,0.4997 26.141,0.4997 L20.9,0.4997 C19.59,0.4997 18.516,1.5747 18.516,2.8847 L18.516,27.4067 C14.866,29.2167 12.363,32.9857 12.363,37.3417 C12.363,43.5097 17.368,48.4997 23.52,48.4997 C29.673,48.4997 34.663,43.5097 34.663,37.3417 C34.663,32.9857 32.161,29.2167 28.525,27.4067 L28.525,27.4067 Z" id="Stroke-3"></path>
                        <path d="M23.52,32.3402 L23.52,15.5562" id="Stroke-5"></path>
                        <path d="M40.937,16.3624 L40.937,9.6084" id="Stroke-7"></path>
                        <polyline id="Stroke-9" points="42.8444 7.7017 40.9374 9.6087 39.0304 7.7017"></polyline>
                        <polyline id="Stroke-11" points="39.0301 18.2694 40.9371 16.3624 42.8441 18.2694"></polyline>
                        <path d="M43.8727,14.6678 L38.0237,11.2908" id="Stroke-13"></path>
                        <polyline id="Stroke-15" points="37.326 8.6856 38.024 11.2906 35.419 11.9886"></polyline>
                        <polyline id="Stroke-17" points="44.5707 17.2727 43.8727 14.6677 46.4777 13.9697"></polyline>
                        <path d="M43.8729,11.278 L38.0239,14.655" id="Stroke-19"></path>
                        <polyline id="Stroke-21" points="35.4188 13.9565 38.0238 14.6545 37.3258 17.2595"></polyline>
                        <polyline id="Stroke-23" points="46.4778 11.976 43.8728 11.278 44.5708 8.673"></polyline>
                        <path d="M0.5,9.8002 C0.5,9.8002 1.099,8.4472 3.28,8.4472 C5.462,8.4472 6.061,9.8002 6.061,9.8002 C6.061,9.8002 6.803,11.1322 8.841,11.1322 C10.878,11.1322 11.621,9.8002 11.621,9.8002" id="Stroke-25"></path>
                        <path d="M0.5,13.9961 C0.5,13.9961 1.099,12.6431 3.28,12.6431 C5.462,12.6431 6.061,13.9961 6.061,13.9961 C6.061,13.9961 6.803,15.3281 8.841,15.3281 C10.878,15.3281 11.621,13.9961 11.621,13.9961" id="Stroke-27"></path>
                        <path d="M0.5,18.1921 C0.5,18.1921 1.099,16.8391 3.28,16.8391 C5.462,16.8391 6.061,18.1921 6.061,18.1921 C6.061,18.1921 6.803,19.5241 8.841,19.5241 C10.878,19.5241 11.621,18.1921 11.621,18.1921" id="Stroke-29"></path>
                    </g>
                </g>
            </g>
        </g>
    </g>
</svg>