<?xml version="1.0" encoding="UTF-8" standalone="no"?>
<svg width="100px" height="100px" viewBox="0 0 100 100" version="1.1" xmlns="http://www.w3.org/2000/svg" xmlns:xlink="http://www.w3.org/1999/xlink">
    <!-- Generator: Sketch 3.8.3 (29802) - http://www.bohemiancoding.com/sketch -->
    <title>Treehouse-door</title>
    <desc>Created with Sketch.</desc>
    <defs>
        <polygon id="path-1" points="0 49.6061 47.009 49.6061 47.009 0.0001 0 0.0001"></polygon>
    </defs>
    <g id="Symbols" stroke="none" stroke-width="1" fill="none" fill-rule="evenodd">
        <g id="Treehouse-door">
            <g>
                <rect id="Rectangle-32" x="0" y="0" width="100" height="100"></rect>
                <g id="Treehouse" transform="translate(26.000000, 25.000000)">
                    <path d="M38.4539,32.9059 C44.7729,32.4099 46.5089,27.6969 46.5089,24.8449 C46.5089,21.8089 45.6119,19.9319 43.2339,18.1119 C42.9649,8.3549 34.9429,0.4999 25.1209,0.4999 C18.2329,0.4999 11.9069,4.4649 8.8729,10.6409 C3.8449,12.5099 0.4999,17.2919 0.4999,22.6889 C0.4999,28.5419 4.3109,32.9559 9.3639,32.9559 L16.3269,32.9559 L18.7749,32.9569 L28.2239,32.9569 L30.7189,32.9559 L36.2359,32.9559 L38.4539,32.9059 L38.4539,32.9059 Z" id="Stroke-1" stroke="#1ADE85" stroke-linecap="round" stroke-linejoin="round"></path>
                    <path d="M43.4981,40.7859 C43.4981,42.1379 42.3981,43.2379 41.0461,43.2379 C39.6931,43.2379 38.5931,42.1379 38.5931,40.7859 C38.5931,39.4339 39.6931,38.3329 41.0461,38.3329 C42.3981,38.3329 43.4981,39.4339 43.4981,40.7859 L43.4981,40.7859 Z" id="Stroke-3" stroke="#1ADE85" stroke-linecap="round" stroke-linejoin="round"></path>
                    <path d="M41.0032,32.9502 L41.0032,35.8602" id="Stroke-5" stroke="#1ADE85" stroke-linecap="round" stroke-linejoin="round"></path>
                    <path d="M45.9772,40.8017 C45.9772,43.5227 43.7722,45.7277 41.0512,45.7277 C38.3302,45.7277 36.1252,43.5227 36.1252,40.8017 C36.1252,38.0807 38.3302,35.8757 41.0512,35.8757 C43.7722,35.8757 45.9772,38.0807 45.9772,40.8017 L45.9772,40.8017 Z" id="Stroke-7" stroke="#1ADE85" stroke-linecap="round" stroke-linejoin="round"></path>
                    <path d="M21.2153,36.8465 L25.8803,36.8465" id="Stroke-9" stroke="#1ADE85" stroke-linecap="round" stroke-linejoin="round"></path>
                    <path d="M21.2153,41.2871 L25.8803,41.2871" id="Stroke-11" stroke="#1ADE85" stroke-linecap="round" stroke-linejoin="round"></path>
                    <path d="M21.2153,45.7278 L25.8803,45.7278" id="Stroke-13" stroke="#1ADE85" stroke-linecap="round" stroke-linejoin="round"></path>
                    <polyline id="Stroke-15" stroke="#1ADE85" stroke-linecap="round" stroke-linejoin="round" points="16.5907 32.4518 16.5837 14.7878 23.6247 9.1428 30.6627 14.7588 30.6627 32.3878"></polyline>
                    <mask id="mask-2" fill="white">
                        <use xlink:href="#path-1"></use>
                    </mask>
                    <g id="Clip-18"></g>
                    <polygon id="Stroke-17" stroke="#1ADE85" stroke-linecap="round" stroke-linejoin="round" mask="url(#mask-2)" points="20.806 23.7091 26.44 23.7091 26.44 16.8061 20.806 16.8061"></polygon>
                    <path d="M30.6627,48.5 L30.6627,32.957" id="Stroke-19" stroke="#1ADE85" stroke-linecap="round" stroke-linejoin="round" mask="url(#mask-2)"></path>
                    <path d="M16.5837,48.5 L16.5837,32.957" id="Stroke-20" stroke="#1ADE85" stroke-linecap="round" stroke-linejoin="round" mask="url(#mask-2)"></path>
                    <path d="M12.1922,49.1061 L34.8172,49.1061" id="Stroke-21" stroke="#1ADE85" stroke-linecap="round" stroke-linejoin="round" mask="url(#mask-2)"></path>
                    <path d="M26.4401,27.6022 C26.4401,28.1542 25.9921,28.6022 25.4401,28.6022 C24.8881,28.6022 24.4401,28.1542 24.4401,27.6022 C24.4401,27.0502 24.8881,26.6022 25.4401,26.6022 C25.9921,26.6022 26.4401,27.0502 26.4401,27.6022" id="Fill-22" fill="#1ADE85" mask="url(#mask-2)"></path>
                </g>
            </g>
        </g>
    </g>
</svg>