<?xml version="1.0" encoding="UTF-8" standalone="no"?>
<svg width="16px" height="16px" viewBox="0 0 16 16" version="1.1" xmlns="http://www.w3.org/2000/svg" xmlns:xlink="http://www.w3.org/1999/xlink">
    <!-- Generator: Sketch 3.8.3 (29802) - http://www.bohemiancoding.com/sketch -->
    <title>Info Copy 3</title>
    <desc>Created with Sketch.</desc>
    <defs></defs>
    <g id="Page-1" stroke="none" stroke-width="1" fill="none" fill-rule="evenodd" opacity="0.601504198">
        <g id="Preliminary-Quote---Default---Desktop-(full-view)" transform="translate(-566.000000, -200.000000)">
            <g id="Extra-options" transform="translate(567.000000, 186.000000)">
                <g id="Learn-more">
                    <g id="Info-Copy-3" transform="translate(0.000000, 15.000000)">
                        <path d="M6.9996449,14 C3.13407396,14 0,10.866085 0,7 C0,3.13391498 3.13407396,0 6.9996449,0 C10.865926,0 14,3.13391498 14,7 C14,10.866085 10.865926,14 6.9996449,14 Z" id="Fill-1" stroke="#FFFFFF"></path>
                        <path d="M7,11.1328 L7,7" id="Stroke-4" stroke="#FFFFFF" stroke-width="1.5" stroke-linecap="round" stroke-linejoin="round"></path>
                        <path d="M6.99999982,5.10000002 C6.55799981,5.10000002 6.19999981,4.74200002 6.19999981,4.30000001 C6.19999981,3.85800001 6.55799981,3.5 6.99999982,3.5 C7.44199983,3.5 7.79999983,3.85800001 7.79999983,4.30000001 C7.79999983,4.74200002 7.44199983,5.10000002 6.99999982,5.10000002 Z" id="Fill-6" fill="#FFFFFF"></path>
                    </g>
                </g>
            </g>
        </g>
    </g>
</svg>