<?xml version="1.0" encoding="UTF-8" standalone="no"?>
<svg width="94px" height="32px" viewBox="0 0 94 32" version="1.1" xmlns="http://www.w3.org/2000/svg" xmlns:xlink="http://www.w3.org/1999/xlink">
    <!-- Generator: Sketch 3.8.3 (29802) - http://www.bohemiancoding.com/sketch -->
    <title>Logo_30px</title>
    <desc>Created with Sketch.</desc>
    <defs>
        <polygon id="path-1" points="0 31.285868 93.8425042 31.285868 93.8425042 0.22332373 0 0.22332373"></polygon>
    </defs>
    <g id="Symbols" stroke="none" stroke-width="1" fill="none" fill-rule="evenodd">
        <g id="Quote-nav---tablet" transform="translate(-41.000000, -38.000000)">
            <g id="Nav-2">
                <g>
                    <g id="Logo_30px" transform="translate(41.000000, 38.000000)">
                        <g id="Logo">
                            <g>
                                <polygon id="Fill-1" fill="#FFFFFF" points="19.030798 24.6683392 23.3715177 24.6683392 23.3715177 0.223100406 19.030798 0.223100406"></polygon>
                                <polygon id="Fill-2" fill="#FFFFFF" points="0 24.6683392 4.30548041 24.6683392 4.30548041 0.223100406 0 0.223100406"></polygon>
                                <path d="M13.3239378,15.517895 C11.7626344,15.517895 10.4437416,14.2232874 10.4437416,12.6908399 C10.4437416,11.0896088 11.7359244,9.78696147 13.3239378,9.78696147 C14.9393347,9.78696147 16.2041341,11.0623633 16.2041341,12.6908399 C16.2041341,14.2496396 14.9119513,15.517895 13.3239378,15.517895 L13.3239378,15.517895 Z" id="Fill-3" fill="#FFFFFF"></path>
                                <mask id="mask-2" fill="white">
                                    <use xlink:href="#path-1"></use>
                                </mask>
                                <g id="Clip-6"></g>
                                <polygon id="Fill-5" fill="#FFFFFF" mask="url(#mask-2)" points="27.9331004 24.6685625 32.063731 24.6685625 32.063731 8.05551026 27.9331004 8.05551026"></polygon>
                                <path d="M45.0207086,11.2945976 C42.331074,11.2945976 40.4526168,13.3784314 40.4526168,16.3620364 C40.4526168,19.3661872 42.331074,21.4643137 45.0207086,21.4643137 C47.7321153,21.4643137 49.55401,19.4137552 49.55401,16.3620364 C49.55401,13.3784314 47.6896935,11.2945976 45.0207086,11.2945976 L45.0207086,11.2945976 Z M36.3917915,31.285868 L36.3917915,8.05551026 L40.3823626,8.05551026 L40.3823626,10.4057692 C40.3823626,10.4057692 42.0269385,7.67251007 45.9306459,7.67251007 C50.598171,7.67251007 53.6139375,11.0694873 53.6139375,16.3271979 C53.6139375,21.4846361 50.3824705,25.0866246 45.7555716,25.0866246 C42.1400634,25.0866246 40.522422,22.6796414 40.522422,22.6796414 L40.522422,31.285868 L36.3917915,31.285868 Z" id="Fill-7" fill="#FFFFFF" mask="url(#mask-2)"></path>
                                <path d="M85.0742458,11.224876 C81.8876696,11.224876 80.4363488,13.8880115 80.4363488,16.3619917 C80.4363488,19.8916233 82.8404777,21.4993308 85.0742458,21.4993308 C88.2605976,21.4993308 89.7121429,18.8361953 89.7121429,16.3619917 C89.7121429,13.8880115 88.2605976,11.224876 85.0742458,11.224876 M85.0742458,25.1908721 C79.9935006,25.1908721 76.3059426,21.4778917 76.3059426,16.3619917 C76.3059426,11.2463151 79.9935006,7.53311139 85.0742458,7.53311139 C90.154991,7.53311139 93.842549,11.2463151 93.842549,16.3619917 C93.842549,21.4778917 90.154991,25.1908721 85.0742458,25.1908721" id="Fill-8" fill="#FFFFFF" mask="url(#mask-2)"></path>
                                <path d="M65.2751187,11.2945976 C62.585484,11.2945976 60.7070269,13.3784314 60.7070269,16.3620364 C60.7070269,19.3661872 62.585484,21.4643137 65.2751187,21.4643137 C67.9865254,21.4643137 69.8084201,19.4137552 69.8084201,16.3620364 C69.8084201,13.3784314 67.9441035,11.2945976 65.2751187,11.2945976 L65.2751187,11.2945976 Z M56.6462015,31.285868 L56.6462015,8.05551026 L60.6367727,8.05551026 L60.6367727,10.4057692 C60.6367727,10.4057692 62.2813486,7.67251007 66.185056,7.67251007 C70.852581,7.67251007 73.8683476,11.0694873 73.8683476,16.3271979 C73.8683476,21.4846361 70.6368805,25.0866246 66.0099817,25.0866246 C62.3944735,25.0866246 60.7768321,22.6796414 60.7768321,22.6796414 L60.7768321,31.285868 L56.6462015,31.285868 Z" id="Fill-9" fill="#FFFFFF" mask="url(#mask-2)"></path>
                            </g>
                        </g>
                    </g>
                </g>
            </g>
        </g>
    </g>
</svg>